<mxfile host="app.diagrams.net" modified="2020-03-30T13:51:18.866Z" agent="Mozilla/5.0 (Macintosh; Intel Mac OS X 10_15_3) AppleWebKit/537.36 (KHTML, like Gecko) Chrome/81.0.4044.69 Safari/537.36 Edg/81.0.416.34" etag="75ceQrn9Gz0Ihyb10YAT" version="12.9.0" type="github" pages="5">
  <diagram id="o6DXPlxMXwV910LR9hnJ" name="Epic Context">
    <mxGraphModel dx="2066" dy="794" grid="1" gridSize="10" guides="1" tooltips="1" connect="1" arrows="1" fold="1" page="1" pageScale="1" pageWidth="1169" pageHeight="827" math="0" shadow="0">
      <root>
        <mxCell id="0" />
        <mxCell id="1" parent="0" />
        <mxCell id="PGqh1YuijZFweoPhQiLg-2" value="&lt;h1 style=&quot;white-space: nowrap&quot;&gt;&lt;font color=&quot;#0077c8&quot; style=&quot;font-weight: normal ; font-size: 48px&quot;&gt;Epic context&lt;/font&gt;&lt;/h1&gt;&lt;h1&gt;&amp;lt;Epic name&amp;gt;&lt;/h1&gt;&lt;p&gt;Lorem ipsum dolor sit amet, consectetur adipisicing elit, sed do eiusmod tempor incididunt ut labore et dolore magna aliqua.&lt;/p&gt;" style="text;html=1;strokeColor=none;fillColor=none;spacing=5;spacingTop=-20;whiteSpace=wrap;overflow=hidden;rounded=0;" parent="1" vertex="1">
          <mxGeometry x="40" y="50" width="790" height="160" as="geometry" />
        </mxCell>
      </root>
    </mxGraphModel>
  </diagram>
  <diagram id="n4bLaYYPYYHQxXJXHJK1" name="BEAM: Capabilities">
    <mxGraphModel dx="2066" dy="794" grid="1" gridSize="10" guides="1" tooltips="1" connect="1" arrows="1" fold="1" page="1" pageScale="1" pageWidth="1169" pageHeight="827" math="0" shadow="0">
      <root>
        <mxCell id="iNT4ub1sUhXxT888dL8U-0" />
        <mxCell id="iNT4ub1sUhXxT888dL8U-1" parent="iNT4ub1sUhXxT888dL8U-0" />
        <mxCell id="94nX70nCfmIl-hpHcw-5-0" value="&lt;h1 style=&quot;white-space: nowrap&quot;&gt;&lt;font color=&quot;#0077c8&quot; style=&quot;font-weight: normal ; font-size: 48px&quot;&gt;Business EA Model: Target&lt;/font&gt;&lt;/h1&gt;&lt;h1&gt;Identification of capabilities in scope&lt;/h1&gt;&lt;p&gt;Lorem ipsum dolor sit amet, consectetur adipisicing elit, sed do eiusmod tempor incididunt ut labore et dolore magna aliqua.&lt;/p&gt;" style="text;html=1;strokeColor=none;fillColor=none;spacing=5;spacingTop=-20;whiteSpace=wrap;overflow=hidden;rounded=0;" vertex="1" parent="iNT4ub1sUhXxT888dL8U-1">
          <mxGeometry x="40" y="50" width="790" height="160" as="geometry" />
        </mxCell>
      </root>
    </mxGraphModel>
  </diagram>
  <diagram id="0csQAXeEfs5Al4BC_swn" name="BEAM: Flow ">
    <mxGraphModel dx="3443" dy="1323" grid="1" gridSize="10" guides="1" tooltips="1" connect="1" arrows="1" fold="1" page="1" pageScale="1" pageWidth="1169" pageHeight="827" math="0" shadow="0">
      <root>
        <mxCell id="ilPdNpB5mTHZ3iF2T62z-0" />
        <mxCell id="ilPdNpB5mTHZ3iF2T62z-1" parent="ilPdNpB5mTHZ3iF2T62z-0" />
        <mxCell id="0VtzcNLIhAJK4v96x3nv-0" value="&lt;h1 style=&quot;white-space: nowrap&quot;&gt;&lt;font color=&quot;#0077c8&quot; style=&quot;font-weight: normal ; font-size: 48px&quot;&gt;Business EA Model: Target&lt;/font&gt;&lt;/h1&gt;&lt;h1&gt;Applications and Process Flow&lt;/h1&gt;&lt;p&gt;Lorem ipsum dolor sit amet, consectetur adipisicing elit, sed do eiusmod tempor incididunt ut labore et dolore magna aliqua.&lt;/p&gt;" style="text;html=1;strokeColor=none;fillColor=none;spacing=5;spacingTop=-20;whiteSpace=wrap;overflow=hidden;rounded=0;" parent="ilPdNpB5mTHZ3iF2T62z-1" vertex="1">
          <mxGeometry x="40" y="30" width="790" height="160" as="geometry" />
        </mxCell>
        <mxCell id="9czb7PI1SNc-1zGOqPu4-0" value="" style="shape=image;verticalLabelPosition=bottom;labelBackgroundColor=#ffffff;verticalAlign=top;imageAspect=0;image=data:image/png,iVBORw0KGgoAAAANSUhEUgAABWQAAAMgCAYAAACklGvxAAAgAElEQVR4AezdiZdTVaI+7P6Xb8vgPCOIgiCDigi0KCKDiAMIMqqIIKDihMxTg63dtwe1tdvhfOvd3931CzFVVIWqVCp5WCurqk7OlPc8CfBm184fGn8kIAEJSEACEpCABCQgAQlIQAISkIAEJCABCUigJwn8oSdHcRAJSEACEpCABCQgAQlIQAISkIAEJCABCUhAAhJoFLIQSEACEpCABCQgAQlIQAISkIAEJCABCUhAAhLoUQIK2R4F7TASkIAEJCABCUhAAhKQgAQkIAEJSEACEpCABBSyDEhAAhKQgAQkIAEJSEACEpCABCQgAQlIQAIS6FECCtkeBe0wEpCABCQgAQlIQAISkIAEJCABCUhAAhKQgAQUsgxIQAISkIAEJCABCUhAAhKQgAQkIAEJSEACEuhRAgrZHgXtMBKQgAQkIAEJSEACEpCABCQgAQlIQAISkIAEFLIMSEACEpCABCQgAQlIQAISkIAEJCABCUhAAhLoUQIK2R4F7TASkIAEJCABCUhAAhKQgAQkIAEJSEACEpCABBSyDEhAAhKQgAQkIAEJSEACEpCABCQgAQlIQAIS6FECCtkeBe0wEpCABCQgAQlIQAISkIAEJCABCUhAAhKQgAQUsgxIQAISkIAEJCABCUhAAhKQgAQkIAEJSEACEuhRAgrZHgXtMBKQgAQkIAEJSEACEpCABCQgAQlIQAISkIAEel7I/vDDD80333zTXLhwoTl79mzz1VdfucmAAQYYYIABBhhggAEGGGCAAQYYYIABBqbVwOnTp5srV640f/vb35qff/55yprjnhWyv/76ayliv/322+bixYvKWE+waX2CeSPAGyEMMMAAAwwwwAADDDDAAAMMMMAAA60GUsieO3euuXz5cnPmzJnmxx9/nJJStmeF7LVr10oR2/ogfQ89AwwwwAADDDDAAAMMMMAAAwwwwAADDPSbgfxmfwra77//ftJL2Z4UsjnxNMv9Fqzz8WRngAEGGGCAAQYYYIABBhhggAEGGGCAgU4GUsjmN/1/++23SS1le1LIZqiv+WLB7gTbMi4YYIABBhhggAEGGGCAAQYYYIABBvrVQKYumOxRslNeyGauhRSy/Rqq8/KEZ4ABBhhggAEGGGCAAQYYYIABBhhggIFOBi5cuND85S9/mVkjZP/xj3+U+RY6PSDLQGeAAQYYYIABBhhggAEGGGCAAQYYYICBfjWQEbKZtmAy/0z5CNlvvvnG6NivPKn69UnlvNhkgAEGGGCAAQYYYIABBhhggAEGGLiZgRlVyF6/fl0hq5BlgAEGGGCAAQYYYIABBhhggAEGGGCAgRlrQCEL74zFe7N3G9zvHSkGGGCAAQYYYIABBhhggAEGGGCAgX4zoJBVyCpkGWCAAQYYYIABBhhggAEGGGCAAQYYYKBHBhSyPQq635p45+PdIQYYYIABBhhggAEGGGCAAQYYYIABBnpvQCGrkPXuBwMMMMAAAwwwwAADDDDAAAMMMMAAAwz0yIBCtkdBe7eh9+82yFzmDDDAAAMMMMAAAwwwwAADDDDAAAP9ZkAhq5D17gcDDDDAAAMMMMAAAwwwwAADDDDAAAMM9MiAQrZHQfdbE+98vDvEAAMMMMAAAwwwwAADDDDAAAMMMMBA7w0oZBWy3v1ggAEGGGCAAQYYYIABBhhggAEGGGCAgR4ZUMj2KGjvNvT+3QaZy5wBBhhggAEGGGCAAQYYYIABBhhgoN8MKGQVst79YIABBhhggAEGGGCAAQYYYIABBhhggIEeGVDI9ijofmvinY93hxhggAEGGGCAAQYYYIABBhhggAEGGOi9AYWsQta7HwwwwAADDDDAAAMMMMAAAwwwwAADDDDQIwMK2R4F7d2G3r/bIHOZM8AAAwwwwAADDDDAAAMMMMAAAwz0mwGFrELWux8MMMAAAwwwwAADDDDAAAMMMMAAAwww0CMDCtkeBd1vTbzz8e4QAwwwwAADDDDAAAMMMMAAAwwwwAADvTegkFXIeveDAQYYYIABBhhggAEGGGCAAQYYYIABBnpkQCHbo6C929D7dxtkLnMGGGCAAQYYYIABBhhggAEGGGCAgX4zoJBVyHr3gwEGGGCAAQYYYIABBhhggAEGGGCAAQZ6ZEAh26Og+62Jdz7eHWKAAQYYYIABBhhggAEGGGCAAQYYYKD3BhSyClnvfjDAAAMMMMAAAwwwwAADDDDAAAMMMMBAjwwoZHsUtHcbev9ug8xlzgADDDDAAAMMMMAAAwwwwAADDDDQbwYUsgpZ734wwAADDDDAAAMMMMAAAwwwwAADDDDAQI8MKGR7FHS/NfHOx7tDDDDAAAMMMMAAAwwwwAADDDDAAAMM9N6AQlYh690PBhhggAEGGGCAAQYYYIABBhhggAEGGOiRAYVsj4L2bkPv322QucwZYIABBhhggAEGGGCAAQYYYIABBvrNgEJWIevdDwYYYIABBhhggAEGGGCAAQYYYIABBhjokQGFbI+C7rcm3vl4d4gBBhhggAEGGGCAAQYYYIABBhhggIHeG1DIKmS9+8EAAwwwwAADDDDAAAMMMMAAAwwwwAADPTKgkO1R0N5t6P27DTKXOQMMMMAAAwwwwAADDDDAAAMMMMBAvxlQyCpkvfvBAAMMMMAAAwwwwAADDDDAAAMMMMAAAz0yoJDtUdD91sQ7H+8OMcAAAwwwwAADDDDAAAMMMMAAAwww0HsDClmFrHc/GGCAAQYYYIABBhhggAEGGGCAAQYYYKBHBhSyPQrauw29f7dB5jJngAEGGGCAAQYYYIABBhhggAEGGOg3A0NTyJ4/f765cOHCyO3MmTO33PqfPn26qfvN991e3MnYR449nv3UdSbj8Xf7eG3nhZABBhhggAEGGGCAAQYYYIABBhhgYFgNDEUhm7L0qaeeah566KFye/DBB5uDBw82nUrUTstGw/HJJ580ixYtaubPn9988MEHXRWyn376abNkyZJm3rx5zfvvv9/VPnJ+Z8+ebR577LHmvvvua44ePdrxsX3++efN0qVLy7EOHDjQ9bFGy8NyL6QMMMAAAwwwwAADDDDAAAMMMMAAAwyMbWDgC9kUrMuXL2/uueeeUlamsMztrrvu+l0p++WXXzYvvvhic+7cuXGVlSlkFy5cWErebgvZkydPllL3gQceaA4dOjSu43ZCnUJ2wYIF5XEdOXJk1EJ28eLFTY61f//+ro/V6fiWjf1Ek498GGCAAQYYYIABBhhggAEGGGCAAQZiYDL//GEyd9ZpX9evX59QiZhfy89I0Ntvv72UkCkjM6L10UcfLQXtww8/3KSETWn7xRdfNE8++WS5ZWqD+gTJfe23el+nQjbr5rj5WtfL17qP9qkC2gvZ3N9p+7qv1v23HmO0Qraun33mMY5WyNZjtu6zHrP1vvp962Oqx+i0bd2Hr15wGGCAAQYYYIABBhhggAEGGGCAAQYYGPBCNiXlxo0by6jR1atXN1evXm0uXbrUfPzxx2WU7Ny5c5vDhw83mTZgy5YtpbhNYZnpDFK2pmD86KOPmn379pXb3r17S8GbUjJ4OhWyWb+uV4GdOnWqbJf97Nmzp0kJW/dRC9lMo5ARshm5mu1zDjn/uo98zcjd9957r9yffeXc6346FbJZlvPJMbPPEydONE888cQNI2TzGD/77LOyTn2cKanrcZNVts2x3n333fL9sWPHynHztW6TdTIyt/2c63589YLLAAMMMMAAAwwwwAADDDDAAAMMMMDAEBSyr776anPnnXc2K1euLEVoRr9evHix2blzZ/PSSy81x48fb3bt2tXMmTOnuf/++5u77767fJ8SM0Vl5p6dPXt2M2vWrPL13nvvLWVp8LQXsilHn3nmmbJupj5I2Znbtm3byjlkH7fddlvz3HPPleNmH7WQzbHXrFlTjp31cpzXX3+9bF+h7tixo8mo3uwj62SKgpx7itpOhWxK1Hr+2SbfZ5vWKQty/Oeff77sM+ukpN60adPIyOHsPyOMM6o455Tjvvnmm6V8zdy3rdmkzE6e9Xx99SLLAAMMMMAAAwwwwAADDDDAAAMMMMDAjQY6zQzQ7bK+m7IgZWgKwhSymTN2xYoVzbp165o//elPzZUrV8po2ayTUaApIbPO448/XkaLZtTs1q1bm//5n/9pXnnllebtt99uUu5mLtqUuxlF2lrIfvjhh6VATXmZY2RUbArajHrNfjNCN/tI+Zmf169fX9aphWzmtc2HcqUozmjdlKb5ELKcR9C+8847ZVRvlqeYzXoZVZufMwo2pWzrHLLZZtWqVaVgfvrpp0txu3bt2nL+tZCtZfEdd9xRyumU0Mko55cRrzn/nHOK2GSYPHbv3l2K6szLm+1ee+21sixlb0rtHDOP3RPtxieaPOTBAAMMMMAAAwwwwAADDDDAAAMMMBADk/mn7wrZPMCUjilSUx6maEyhmlt+dT/lYkaWpnjMVABZJ0VjRtHWMvfo0aPN+fPnS+mZbVJOZq7Z1kI2o1Yz1UC+Ll26tIx6zfbZd9bN6Nf8en9K4BSnjzzySPkwsM8///yGEbIZeZpzSdGbEakpZPNhYdlXCt2cf10n62WEb0b0btiw4XeFbIro+fPnl8I2pXDWz7LWEbIpTnMuueVcc34pgPMYM9I3j7sWsimLM2I4+8m68+bNK+eTx52pIJJHRuQmLy8uXlwYYIABBhhggAEGGGCAAQYYYIABBhjobGDgC9lc+JSF+UCrZ599dqSYTemYUakpK1MwZgRqLWRTmma7lI8ZTZvCMqNRU35mm2XLlt1QyOa+fFhY7su0AxVbjpuSNstTYNbyMwVtlmdkawrQbJtRqzmXbNs68jYlZ4rTrJPj53GkoM16KUOzXaYKyDp1hGxK0ewrx8kx6/mkAK7Hyoed5fgpp+t69fySTUYK5/HXQjajgnPs7KsWzdk2pXG2y9c6Urcez9fOTzq5yIUBBhhggAEGGGCAAQYYYIABBhgYXgMDX8imqMwtyFNk1jIzxWQKxZS0nQrZlLKZVqCWsC+88EIpOfNzeyGbwrXeUmRmGoIcr7WQTenZesuxU5zerJDNCNnsJ8Vrjp3v6xM2ZW2K0DyW9kI2I35zThklWx9z1smUBNlXayGb9VrPLd+nlM1xaiGbKQlqIZvlGS27cOHCsl197NkmOdW863n6OrwvMK69a88AAwwwwAADDDDAAAMMMMAAAwzcaGCgC9kUgyksU2Tu27dvpJBNQZkPq0qRmNGlGQn67rvvjoyQza/qZzRp7s9I1pSPWZZRtClSOxWyGzduLNMTZK7VfBhX9lkL2Ywgzf6yjxS92V9+DsY6h+xYI2SzXs4zUxZku1qw5jFlu0ylkHXqCNkjR440mdO2jsqt6LNt6wjZzJ2bbPLhXJcvXy7nl3I6JXHK19YRsu2FbM4h+Wa9HLeWszmfjPCtx/T1xiecPOTBAAMMMMAAAwwwwAADDDDAAAMMDLeBgS5kUy7mA61SOmZagRSquaV8TTGZ5fmQrRSPmV81P2fO14sXL5ZSMeVrSs0UjNlXPtQqo0DbC9mUvpkj9sSJE6XEzfyvKWNTvqbsTEmb+WpTyGbE69y5c8vI1RSz4ylkU34+99xzpZDNh2jlXHLOmTs2JW3K4ByrtZCt0x6kIM1o2WyTEbl1XtlMd5BCNY8v55cCN3PnvvXWW80f//jHJgVszrfTCNlsl+0z2jblbf2AtOSQ88nUBbU09gIz3C8wrr/rzwADDDDAAAMMMMAAAwwwwAADDNxoYKAL2ZSCKSFTFKZczRyx9ZbyNeVq/cCrlIgpE1NQ5oOz8nNGpaaszNQFKUJT6mablKwpXGvpmf2naE1JmoI3x9i+fXspNPfs2VN+ThG6c+fO8mFZOc4rr7wyoRGyBw8eLMdOwZp953zyfUrYjHRtL2QDfd26deUxpTh94403SoGax53tUqgmn5S6eYwponN+mXIhI4MzHcJoI2RTyKbQnjNnTskmeW3ZsqUcK9nU0b+ebDc+2eQhDwYYYIABBhhggAEGGGCAAQYYYICBgS5kAzylYsrHFK21jM3XjGJNAZn7s14K1meeeaa5/fbbm1mzZpUpDTKyNFMWzJ49u4xq3bx5cxlhmu1TgqaQzf0pe1NgZj8peFPaZpqCrJPSMyNrU4Rmv7m9/PLLZWRp1s8I2ZS1KWlzvCzLdjnf7Pf9998fOb9Ms5Dlt912W9lPStE6+jUjYFMY51xTDue4KZXzmHLMbJP5cuso1r17944cK/O+Zrusl8e2Y8eOMno2+8gxk0kK2zqHbJZnRG1GH6eUrY8rmdbzzeNwkwEDDDDAAAMMMMAAAwwwwAADDDDAAAM3Ghj4QjYXPKVrSso6ZUG+Zp7VWsZWFClC6zq1TE3RmmUpPjMyNNvlA7FSTqbETQGbKRDqqNBOy7L/bJ/9ZKRr1kmpmeX5PiVm9pEpDOqy9v1meUrX1seRaRLqY8j+cozsv55L7ktpnGU5dsrfPJ4cK99nn9ku69d1cl+W11u2z7Y5bh5/XZ7tWvPKOp0yrev7+v8ylYUsGGCAAQYYYIABBhhggAEGGGCAgeE1MBSFbICnQGy/dYJf16n31Z/ztXU/7ffXnzut07qs7me867eu176f9n3Vcx1tm9btR1unfZ9jbdN632jHbj+On4f3xca1d+0ZYIABBhhggAEGGGCAAQYYYICBryazj23+MKl767Cz69evj4zQdPE8gRlggAEGGGCAAQYYYIABBhhggAEGGGBgphnoUHt2vUgh2/Kr/jMNgvP14sUAAwwwwAADDDDAAAMMMMAAAwwwwMDUG+i6fe2woUJWIWsEMwMMMMAAAwwwwAADDDDAAAMMMMAAAwyMYaBDr9r1IoXsGEF7d2Hq312QsYwZYIABBhhggAEGGGCAAQYYYIABBvrdQNfta4cNFbIKWe9+MMAAAwwwwAADDDDAAAMMMMAAAwwwwMAYBjr0ql0vUsiOEXS/N/POz7tHDDDAAAMMMMAAAwwwwAADDDDAAAMMTL2BrtvXDhsqZBWy3v1ggAEGGGCAAQYYYIABBhhggAEGGGCAgTEMdOhVu16kkB0jaO8uTP27CzKWMQMMMMAAAwwwwAADDDDAAAMMMMBAvxvoun3tsKFCViHr3Q8GGGCAAQYYYIABBhhggAEGGGCAAQYYGMNAh16160UK2TGC7vdm3vl594gBBhhggAEGGGCAAQYYYIABBhhggIGpN9B1+9phQ4WsQta7HwwwwAADDDDAAAMMMMAAAwwwwAADDDAwhoEOvWrXixSyYwTt3YWpf3dBxjJmgAEGGGCAAQYYYIABBhhggAEGGOh3A123rx02VMgqZL37wQADDDDAAAMMMMAAAwwwwAADDDDAAANjGOjQq3a9SCE7RtD93sw7P+8eMcAAAwwwwAADDDDAAAMMMMAAAwwwMPUGum5fO2yokFXIeveDAQYYYIABBhhggAEGGGCAAQYYYIABBsYw0KFX7XqRQnaMoL27MPXvLshYxgwwwAADDDDAAAMMMMAAAwwwwAAD/W6g6/a1w4YKWYWsdz8YYIABBhhggAEGGGCAAQYYYIABBhhgYAwDHXrVrhcpZMcIut+beefn3SMGGGCAAQYYYIABBhhggAEGGGCAAQam3kDX7WuHDRWyClnvfjDAAAMMMMAAAwwwwAADDDDAAAMMMMDAGAY69KpdL1LIjhG0dxem/t0FGcuYAQYYYIABBhhggAEGGGCAAQYYYKDfDXTdvnbYUCGrkPXuBwMMMMAAAwwwwAADDDDAAAMMMMAAAwyMYaBDr9r1IoXsGEH3ezPv/Lx7xAADDDDAAAMMMMAAAwwwwAADDDDAwNQb6Lp97bChQlYh690PBhhggAEGGGCAAQYYYIABBhhggAEGGBjDQIdetetFCtkxgvbuwtS/uyBjGTPAAAMMMMAAAwwwwAADDDDAAAMM9LuBrtvXDhsqZBWy3v1ggAEGGGCAAQYYYIABBhhggAEGGGCAgTEMdOhVu16kkB0j6H5v5p2fd48YYIABBhhggAEGGGCAAQYYYIABBhiYegNdt68dNlTIKmS9+8EAAwwwwAADDDDAAAMMMMAAAwwwwAADYxjo0Kt2vUghO0bQ3l2Y+ncXZCxjBhhggAEGGGCAAQYYYIABBhhggIF+N9B1+9phQ4WsQta7HwwwwAADDDDAAAMMMMAAAwwwwAADDDAwhoEOvWrXixSyYwTd78288/PuEQMMMMAAAwwwwAADDDDAAAMMMMAAA1NvoOv2tcOGClmFrHc/GGCAAQYYYIABBhhggAEGGGCAAQYYYGAMAx161a4XKWTHCNq7C1P/7oKMZcwAAwwwwAADDDDAAAMMMMAAAwww0O8Gum5fO2w45YXstWvXtOtKXwYYYIABBhhggAEGGGCAAQYYYIABBhiYsQY69KpdL5ryQvb69eszNuh+b+adn3ePGGCAAQYYYIABBhhggAEGGGCAAQYYmFoDZ86c6bp87bThlBeyf/3rXxWy3v1ggAEGGGCAAQYYYIABBhhggAEGGGCAgRln4PTp083Zs2c79apdL5vyQva7775rcuKa+qlt6uUrXwYYYIABBhhggAEGGGCAAQYYYIABBibXQMrYy5cvd12+dtpwygvZn376qTl37pxC1jsgDDDAAAMMMMAAAwwwwAADDDDAAAMMMDCjDFy4cKH5y1/+0qlX7XrZlBeyObNLly6Vob0a+slt6OUpTwYYYIABBhhggAEGGGCAAQYYYIABBqbOQH7z/z//+U/X5WunDXtSyP7888/NqVOnTF3gHZAZ9Q6IF7OpezGTrWwZYIABBhhggAEGGGCAAQYYYKDfDeTDvK5du9b89ttvnXrVrpf1pJDN2f3v//5vkweR6QvMKesJ1+9POOfHKAMMMMAAAwwwwAADDDDAAAMMMDCcBtJhnj9/vrl48WLz3//+t+vidbQNe1bI5gT+8Y9/lAeSQvbPf/5zc/XqVTcZMMAAAwwwwAADDDDAAAMMMMAAAwwwwMC0G0hfmSI2H+SVkbG//PLLaJ3qLS3vaSGbM82HfH333XfN3//+dzcZMMAAAwwwwAADDDDAAAMMMMAAAwwwwEDfGMiA0h9++KH59ddfb6l0HWvjnheyY52M+yQgAQlIQAISkIAEJCABCUhAAhKQgAQkIAEJDHICCtlBvroemwQkIAEJSEACEpCABCQgAQlIQAISkIAEJNBXCShk++pyOBkJSEACEpCABCQgAQlIQAISkIAEJCABCUhgkBNQyA7y1fXYJCABCUhAAhKQgAQkIAEJSEACEpCABCQggb5KQCHbV5fDyUhAAhKQgAQkIAEJSEACEpCABCQgAQlIQAKDnIBCdpCvrscmAQlIQAISkIAEJCABCUhAAhKQgAQkIAEJ9FUCCtm+uhxORgISkIAEJCABCUhAAhKQgAQkIAEJSEACEhjkBBSyg3x1PTYJSEACEpCABCQgAQlIQAISkIAEJCABCUigrxJQyPbV5XAyEpCABCQgAQlIQAISkIAEJCABCUhAAhKQwCAnoJAd5KvrsUlAAhKQgAQkIAEJSEACEpCABCQgAQlIQAJ9lYBCtq8uh5ORgAQkIAEJSEACEpCABCQgAQlIQAISkIAEBjkBhewgX12PTQISkIAEJCABCUhAAhKQgAQkIAEJSEACEuirBBSyfXU5nIwEJCABCUhAAhKQgAQkIAEJSEACEpCABCQwyAn0vJD99ddfmx9//LH5xz/+0fztb39zkwEDDDDAAAMMMMAAAwwwMIQG/vd//7f57rvvmv/85z+D/H9uj00CEpCABCTwuwR6Wsj++9//bq5cudKcP3+++eqrr5qrV6+Wn7PMTQYMMMAAAwwwwAADDDDAwPAYyP8Lz54921y8eLH5y1/+8rv/rE5kwS+//NJ8//33zbfffttcu3atuX79upsMGGCAAQa6MpA3DNNhTuWfnhWyeefz3LlzzYULF5ozZ840p0+fLqVsilk3GTDAAAMMMMAAAwwwwAADw2cg/zdMKZtrnwE7+Y3Kif5JEVvL3fw/M//nzM9uMmCAAQYYmKiB/J2Uv0vSYebvpan607NCVgk7fP+48g9q15wBBhhggAEGGGCAAQYmYuCbb76Z0P99//Wvf5VC1/83OZuIM+vywgADNzNQB5LmTb6ff/55Qn83jWflnhSy+XWRPICbPVj3e0IwwAADDDDAAAMMMMAAA8NrICOTxjtK9rfffiujmOp/mrkZXjeuvWvPAANTaeDPf/7zeDrWCa0z5YVs5vLJnEBTGYx9e+IxwAADDDDAAAMMMMAAAzPfQOYQztx94/mTuWIN/Jn519zz1jVkgIF+N5A3/ib7AyinvJDNfD7esfTk6vcnl/NjlAEGGGCAAQYYYICB6TeQuf7GMxIpA39MUzD918tzxjVggIFhMHDp0qXmb3/723jeKxz3OlNeyP71r39VyPrgMiOkGWCAAQYYYIABBhhggIGbGkjJmtvN/mTgzzCUAB6jsosBBhiYfgOZTmeyP+BrygvZr7/+2l+U/uHFAAMMMMAAAwwwwAADDDAwLgOZtuBmfzKtgZJi+ksK18A1YICBYTCQ3/xPKTuZf6a8kM28PsNwcTxGL0IMMMAAAwwwwAADDDDAwK0bGM8opG+++cb/MxX8DDDAAAM9M3Dq1KnJ7GObKS9kr1+/3rNw/OPn1v/xI0MZMsAAAwwwwAADDDDAwHQaUMjyN53+HJs/BhgYzcBkNrIKWe8mKMwZYIABBhhggAEGGGCAgb4xoJBVhoxWhljOBgMMTKcBhax/LPXNP5am84ng2F6IGWCAAQYYYIABBhgYPAMK2cG7pp6nrikDDAyCAYWsQlYhywADDDDAAAMMMMAAAwwMpAGFrOJmEIobj4FjBgbPgELWP7wG8h9eXqwG78XKNXVNGWCAAQYYYIABBiZqQCHLzETNWJ8ZBhjohQGFrEJWIcsAAwwwwC7w31wAACAASURBVAADDDDAAAMMDKQBhaxipRfFimNwxgADEzWgkPUPr4H8h9dEnwjW9+LJAAMMMMAAAwwwwMDgGVDIDt419Tx1TRlgYBAMKGQVsgpZBhhggAEGGGCAAQYYYGAgDShkFTeDUNx4DBwzMHgGFLL+4TWQ//DyYjV4L1auqWvKAAMMMMAAAwwwMFEDCllmJmrG+swwwEAvDChkFbIKWQYYYIABBhhggAEGGGBgIA0oZBUrvShWHIMzBhiYqAGFrH94DeQ/vCb6RLC+F08GGGCAAQYYYIABBgbPgEJ28K6p56lrygADg2BAIauQVcgywAADDDDAAAMMMMAAAwNpQCGruBmE4sZj4JiBsQ2cPn26OXfuXHP27Nnf3fo1O4Wsf3gN5D+8+vUJ57zGfhGVj3wYYIABBhhggAEGJtOAQpanyfRkXzwx0H8GUsYeO3as2bp1a7Nt27Ybbq+//npz6tSprnqv7Hcqr7dCViE7pcCmEq99998LoWvimjDAAAMMMMAAAwz0kwGFLI/95NG58MjA5Bs4c+ZMs3fv3mbu3LnNXXfddcPt3nvvbZ5++ulmouVqRtqeOHGi+eyzz6asM1PIKmSnDJcXmsl/oZGpTBlggAEGGGCAAQYYGL8Bhez4s+JKVgwwMBMNpJDdv39/KWLvvvvu5o477hi55eeUtOvXr2+y3ngeX8rYd955p1m8eHHz8ccfj2ub8ey3fR2FrEJ2ynC1Y/OzF3cGGGCAAQYYYIABBhjopQGFLG+99OZYvDHQewO1kL3zzjubdevWNZ9++mlz8uTJMro1RWxK2YceeqiMeK3XJ6Vr5pytt/xc7/v888+bhx9+uHnkkUfKPlrvq+vXr3Wbbr4qZBWyI+i6AWSb3r/YyFzmDDDAAAMMMMAAAwyMz4BCdnw58SQnBhiYqQZaC9kUsK3TE6SczUjX+++/v9m9e3fpv3L/6tWrm3vuuafJlAa5rVq1qtyX9R9//PHmvvvuK7esk3VzjNyX5XWbFMBZ1m1uClmFbNd4ukVnOy/0DDDAAAMMMMAAAwww0AsDClnOeuHMMThjYPoMjFXIpnxNSZsS9aWXXiplbT7oK9MYPProo83ChQvLSNj8/NprrzUZHbtixYpSvKbEnT9/fvPCCy+UkbIpZx988MGyXbZ94IEHynqffPJJV72aQlYh2xUcLzbT92Ije9kzwAADDDDAAAMMMDA+AwrZ8eXEk5wYYGCmGrhZIbtt27ZSyG7YsKEUsilmly9f3ly4cKE5depU88orrzQZ7bpmzZom0xN88cUXZURtyth8f/78+ebgwYPNypUrmx07djSXL19uDh061Dz22GOllH333Xe76tUUsgrZruDM1Ceq8/aXDAMMMMAAAwwwwAADw2NAITs819rz2rVmYDgNjLeQzUjZFLCZ//XAgQPNG2+8UYrZ22+/vRS2a9euLYVsRrxmdGzmkK0f6pVSNtMTpJDNCNu5c+eWKQ8ySva9997rqldTyCpku4LjhW44X+hcd9edAQYYYIABBhhgYCYZUMjyOpO8OldeGZi4gZsVshkRW6csyLqZmiBzwc6ePbt59tlnmz/96U9lCoPRCtlMe/Dhhx82y5YtK9vkQ8JeffXVZsGCBWWErEJWsapYZYABBhhggAEGGGCAAQYYaDGgkJ14uaEQkhkDDMwkAzcrZJ966qky4vXNN98sc8FmHtiHH364TEPw2WefNXv27GnuuOOOphayGRWbwrZ1hOyLL75YRsSmvH3//ffLVAZPPPGEQna8UDLEuPXW+slr493HTFwvOPO4Myx7Ks+/ZjssuU5llvbtL0AGGGCAAQYYYIABBm7dgEL21jPkUIYMMNDPBloL2RSnmRs2/VS+7t69e+QDujLK9YMPPijl65IlS0pHlp6sziFbC9nMG5vCNoVspi/48ssvy/yxKWnfeuutMg/tyZMnyweCmbKg5R3Q0ZBkYt6EmQDrJ6V1+0loox2jX5dnKHUe8zPPPDPphWwtX/MESL4Zuv3RRx8VoP2ah/PylwkDDDDAAAMMMMAAA8NhQCE7HNfZ89l1ZmB4DdRC9q677hrp/NKB1VumK8iHeGW99ID33HNP6a5S0GaEbEbMZlktZFPAzps3ryzPOrH13HPPlX3na3qwzD+bbRSyNylkDx8+XIJMGZsLUW+ZuDdDk2upOKhP4Ew4nLI0cCbzMX7++efN888/X95VCOzHH3+85KyQHd4Xwsn0ZV8cMcAAAwwwwAADDNyqAYUsQ7dqyPYMMdDfBtJH7du3r8wDW/u++jU9YArXlKy5jll3zZo1pRdMgZtBhXXw5uLFi8uHemVAZ0bQpnC98847y+DGgwcPlvK1LkvZ+9BDD5WSNqNmuzEyFB/qlVATchruJ598slm6dGkzf/78ElyGIddPTasB5gLVW3tZW5fXC9n682jLso+6Xvv3o22T5XXd1nNoX9b+cz1OvmYfuWUI9qVLl8pw7bosX1vXbT1GXaf1/tb9Zd28i5ACduXKlc3FixfLcXKMy5cv/67gbt1P+3Faz79+33qsei6+9vcLoOvj+jDAAAMMMMAAAwz0owGFLJf96NI5ccnA5BlIl5QP1kr3l76v9ZYP7WrP+tNPP22efvrpsl7uT2eWAYyLFi0qxW32lwGImSM2+8p9mf4ggx2zLGXtzp07ywDPfJ/fSm8/xnh+HuhCNsXeO++8UxrtFLCZOyKFYQrEjIxNs53JfesQ5ASWC3HgwIEyL8SuXbvKZL1px3NfLkpa8QR/6tSpZv/+/WW97DdzTGSdNOO5pZ2vxWIK3+wr+z1+/PjIOpm7IvNavPvuu2VZ3W891tGjR5sdO3aUbXLs3I4cOVKWZdvsP6NRs13w5Zzq8XOe9fjZT46fLLLv3HLf22+/PbJ+tq/r5/7kkMeV/WXbHCPvKOQcTpw40WRejkx6HPDJMqCzv6wXuPUx5Gvuzz6yrwwPr3nmvjz2bJPHkXPIOvk5jyX3u8mAAQYYYIABBhhggAEGujWgkGWnWzu2Y4eBmWMgfVa6vvZbitT0WK3XMj9nedbN19xXf67rZZ26r/R2WZ6erC5Lr5Vbfs7yut1Evg50IZtw8iv1GWL82muvlfKzNZwsy0S8rUXktm3bynDm2267rZk1a1bz6KOPloIwAWd/GWE7Z86cZv369WXU7ezZs8vXfNJajvXHP/6xmTt3bhnKnE9ey/FSzmaEbkbjpj3PvrOPlJmbN28ux8uxsl32m/PJsbZs2VL2l0+Cy7LcNm3aVLbfuHFjeTwpO3MOCxYsKPNd5PiZiiHHqkXz1q1bSwaZM6M+/hS9Oaf6OLN9St7cH3hp/pNbvT/nu27dulLKZq6MHDNDtLOP3JfHmp+zPIVt9pGSOplkGHgeX255FyLFcB5LStf8nPNNMZ7h3lknP2e7rFPP19eZ80LoWrlWDDDAAAMMMMAAA/1iQCHLYr9YdB4sMsBAq4GBL2RToGbOiFqOtj74lJ4pDuuylJuZZyJTG2S0Z0aIZq6JTNKbEZwpZfMr+lknpWGK1pSmGWmb0nHhwoWlbEzJmGUbNmwo+87I2DpJcIrGvXv3lmHPWSf72r59exlBmuNmPxlFm3NLOZzjZMRoLWRzvIxMTZGblr7Ok5Hy9IUXXigjeFMipyjNunl8GT6dDHJe+fnQoUOlPM08GRnlm/I1+0wpmvtT5NYcsv+MYl2xYkUpaLN+SuwcP+eagjkFa8rXev61kM35ZL/5MLE85myTx5wh3xlFm0J29erV5dxSxuZxZoRsjp3Hc+zYsRuuT71OvnoRY4ABBhhggAEGGGCAgfEYUMhyMh4n1uGEAQZ6bWCgC9kUfpmqIGVop0K2PewUlikZU8SmAE05mV/NT4n48ssvjxSyKQtTdqagza/qp+zMdvnwsCxLmZufs78coxayOZdaVmZ/2S7lZM4zt5SeOVbKy+xnIoVsStiUotkuo19zjpnnIo+jtZDN/XW6gTzOWkqnTM5I15St2U9K4cwTe+XKlZHRqzm3FKbZRx5TLXEztDv7aS1ks30eb0bqZpqFZJkS9rHHHisFd6ZUqIVs9ptzyrm25pCCPNu1Xyc/e6FkgAEGGGCAAQYYYICB8RhQyHIyHifW4YQBBnptYKAL2ZSEmZQ3I1xTlo4VbuZHTVmYcrB++lrWT7ma7TPSNj9nhGzKzjpHa0rGFKspHlPO1hGmWScjTrNNLWRzLnV+1RS6GQmaqQ6yTYrItWvXluPnmBMpZHOsjELNflJqpsjMskxO3F7IJpM62rWWwznHlLD13LJNHl8eV0auJpOcay1ks4+MlK2FbEbqZpvWQjajcLNtPvgr+88t69SpHjKNQpZlhGxG89ZRwMk+jyXHSmGskPWiWP34ygIDDDDAAAMMMMDARA0oZJmZqBnrM8MAA70wMPCFbD4BLYVf5j1tL/dSQqYITdAZDZo5UFME1mVZng+aygjbjGTNz5NVyObX91NyZgqDmxWyGfGaMjO3TlMWTLSQrcVppmFozySPMaOJ85iTR0bOpiTNaNvkmBGy4ylkM8o3hW4K2XqMnH9G62b0cB5HjlUL2ew39ytkvfDFhZsMGGCAAQYYYIABBibDgEKWo8lwZB8cMcDAZBsY+EI2BWAKy0wfkBGstdjM95lDNR+SlWI2RWDKw5SO+bmWiBmlmWJy2bJlZVmvC9mMQs30BilBc0uRm2X5WueQnWghm5G72abO0ZrH+vHHHzdHjx4txfQrr7xSiumUxfnEuKBbtWrVDYVs65QFnUbIptTNCNmMOq5ok30+GCyld6ZjyHKFrBe16sNXFhhggAEGGGCAAQYm24BClqnJNmV/TDHAwGQYGOhCNkVjfi0/Uw5kVOby5cvL9AH5oKoUg/XX8PPr9wkzv+KfQva1114r5WctELMsv2KfaQR6VcimfM15pHzN6NTM05rHk6kT8lhupZBNwZsPC8uHbmW/eVwZATxr1qwyFUFK6pSmmU4hZWvK64yUTQ67du0qpXbmha2ZprTN+daRt8k8Be+CBQtKKZtRxrk/+8lct7keWZaRyApZL2ST8UJmHxwxwAADDDDAAAMMdDKgkOWikwvLuGBgcg2kP0vvU2/5uTXj9FnpntqXt67Tb9/nseScp+q8BrqQTWi52Nu3by8FYwrFFJy5pUzM15SwGR2bdVPMpojMr+vnV+pzq792nzKxl4VszjulZc6zjijNiNWcWx5Ht4VsngQZCZs5b7OfjFTN46zlakrSzGGbx52CNUV05radO3duOY/XX3+9PMEyujbbZJRx8k0+rYVszv+ll14q26VEzqjbFLwZmZsSNpkrZCf3BXCqXiTs13VigAEGGGCAAQYYmKkGFLLszlS7zpvdmWKg/vZ2ep90TPmaQXwpNPMY0kPl53RP6d3yc78/tnRWeSzpxFqnNZ3M8x74QjZhJcjMaZoCMiNDc0uZGAztH2yVD8RKWZnRorllqoIPPvigFLvBlJGkt912W0GU0jFzz6bYzWjbkydPFlgpPLNO/SCwjMjN8TJitH5w1saNG0tZuWbNmrJNLnDK4RSfGYUaoJk6IVMtZP/ZX9ZNqZnvs33Q53zzc0b/ZpucU6ZZyLJMTZCfAyj7yGOpePKhXSl66+PMdA0579yf4+ZYc+bMKfvJtAM5XvaREcL13LL/ZJl9ZH+Z2iHf10yTR8ra5F6Pk9G5de7aPObsY/bs2U2dJzfXKo8lx868sjPhiVoz9dVfmAwwwAADDDDAAAMM9JcBhWx/XQ/PD9eDgcEykF4qv92dwXrpvept8eLF5TfU00mlS3vzzTdL95PfVq9FbT9bSHdXO8T0VFNxrkNRyCa4IEixevjw4ZFbCsH2wi/rffjhh+WDrbJufvW+rpOv9b4Usdlv9pH1su98n2UpNDOHakaR5uesm3VSeNZ1st8sS3mZdXI7fvx42S6jTeuyTz75pKyX/WU/+fnQoUMj55V1W4+V7dqX1X3U88k6eSw1j2yfY7c+zpSpWZ5bzjGPqT6Gem71MWSdnFv2l+8r1rq/1uPkvro8+6mPOcer+815Zj+tOdT7fB2sF2/X0/VkgAEGGGCAAQYYmEoDClm+ptKXffM1zAZSrGYgXQbnZcBfBuxlIF9+MzqDFvNb1Ol6sl4G4eW+/Ob3TChk04HlcaWUrR3XZF/roSlka3ApA1sLwbq8/etY67Vv3/5z9tVpWadjjHdZ6/5avx/tWONZp27bvm49pywf7b7R1hlt/bH21WmbTsvqMX31lx4DDDDAAAMMMMAAAwyMx4BClpPxOLEOJwx0ZyC/UZ0yNr91nVGlGayXaQnqb6a/+OKL5bOLWgvZjKrNlKCjzSlb76tfW69NBlHW7er3+bm1Q6rL8zXL637yc+u+8n3K4U73dypkW/eVbW61WB66QrY9fD9396STm9wYYIABBhhggAEGGGCg3w0oZBntd6POj9GZauCdd94pH9qeD4HPb1DXx5HiMh8Wn2lCU4LmVgvZ9evXl1G1mdogo2gz32zdLl+zn3ymUe7LLevVqT+z3/rZRJkmIaNt6zr5DKbcn5L0jTfeKIVwPsi+flZU1svnHLUeK6XrihUryj4yEjbnnH1knfZCNsvzG/NZL/tKCb1o0aKR9Vv3O97vFbL/N13AeAOznhdLBhhggAEGGGCAAQYYYGBmGFDIzozr5PnkOjEw8wzU6QpWrVr1u2IyxWgdQVoL2ZSrKTQfeuihJiVuPrQ+0xhkWs4UnpneIOvk/kcffbTcHnjggbJe7ss6tYRNIZp5a7NeCtyMyE1xWwvZ9mNlnRwrU2pmP7llntsszz7ymU/ZJp+nlPNtLWQz9WjK50zFUM8t69dStk5NOlHDClmF7A3vEEwUkPVn3ouma+aaMcAAAwwwwAADDAyLAYUs68Ni3eNkvdcG8gHyGS26YcOGUnCOdvzWQjYFaz6nKK/NdbRrRtJmCoB9+/aVD5J/++23m8uXLzfvvvtuKUtT3OZzhmohmyI0ZWqOl+1qmbp3797yc0bIplzNdhlxe+XKlfIh9ylUMyI32+zcubOsk1GzOVbmic20C9kmI2HbC9mM7E15m691/dWrV5fzzectjfbYx1qukFXIdgVnLFTu8xcBAwwwwAADDDDAAAMM9IMBhSyH/eDQOXA4iAY2b948oUI2I1SfffbZMqdsLWmzLCVnRrZmbtmMhH3zzTebTEkwZ86cMgo1o1JTetZCNmVryuAUq8k1xW6WZbvsI4Vs9vvcc8+NHCv3ZVnmtM12Tz31VClYs23Wz5QKS5YsKVMwpBhuL2Q3btxYziVz5ubcsk3K3vwdk8fSzfVVyCpku4LTDTbb+EuIAQYYYIABBhhggAEGemlAIctbL705Fm/DZGDbtm2l1EzJ2v5r+ylYa2HaqXytUwukJM1cr1n3yJEjzdKlS5tZs2aV8vPVV18t0xJ0KmRTiNYidO3ataWQTanaWsimfM1xckuJmmNlNG+2y9yxdaqDHC+3uXPnlnW2b9/+u0L22LFjZbRuSuLsJ6Ntc64patsf+3gNKGQVsgpZBhhggAEGGGCAAQYYYGAgDShkFWTjLUesxwoDEzOQKQIyBUF+1T8jSmt+Gcl64MCBJoXqxYsXSwFaP9Qrc8DWkrSOZE0hm2Xr1q0rRWyK1ExRkDlhs+9Ohezrr79+00K27ne0Qvb+++9vUipnftjcMr9sbhn52jpCNtMZpMQ9fvx4mUYh55M5azMqN1M2ZIqF+tgn8lUh+39zTqRFD5qJhDdd6wZTzjdfp+scHHdiL1TykhcDDDDAAAMMMMAAA703oJDtfeacy5yB4TCQ4jKlZkaaPv30082lS5fKFAEpUlNapqxNyZrRrzcrZGPmySefLPvbs2dP6ec++uijMj/sZBeyOZ+M6s15ZzRsusCUritXriwFcOaubS9kUyynvH3vvfeaTz75pJS2+QCw7COjZLsxP/SFbKDUi37w4MG+L2UDJRc76DPXRTcX3TbD8eLoOrvODDDAAAMMMMAAA8NuQCHrOTDszwGP33NgqgxkkOCmTZuau+++uxST6anqLUVlRpBmpOx4CtmMQE2pm+0yijbdV0bY5gO8JruQzQDHzCmbfWdO2Ew5kBG5Oc6jjz7afPbZZ78rZGv5mnlps34K3GXLlpXHm1K3m4wVsv9XyOaiz5RCNp8Cl/NVyHph7eZJbxtuGGCAAQYYYIABBobFgEKW9WGx7nGyPh0GUrZmDtcUsfn1/XrLz5mvNfenbM0I2fyaf/uUBVmWqQVSkmZkbLZLUZo5WvP9gw8+WL5meoSUtOnBcl/rlAUpS9s/1KvuN6VxbplDNstyTvk555XpEGpxnO1zvLfeeqvc3zpCNgXs0aNHm3nz5pVzy7q55bEuXLiwTK3QTfZDU8gGQOuthlVHyNZCttM6dd1c/Nb783O9L1/rfa3fZ1mnddr31bpOvh/t/izvVMi2r5+f2/fpZy/QDDDAAAMMMMAAAwwwMEwGFLK8D5N3j5X36TBw4cKFMlI2H3JVbxmBmtIz55NeLIVqCtCtW7eOdGcpYLMsUwGkJM1+Mtr0iSeeaJYsWVLmZk1Bmu+zv/Rc2X7x4sXlvtq3bd68uSzLMXLM9v1mvd27d5djZdRtjpXzyrqZrzbnnGNmHtl6zilk89v0WZ5CNvvILcvqY8yI3qzfbf82FIVsQsvo11zI3Pbv3z9yAdoL2Vy4rJOv9SJVQIcOHSr37dq1q8kt80pk37n/008/Lcv27dtXLlY9Vi563U+GNOf+bJsh0MGS9Xbu3Dmyn+wrFzP7y/Ksm3WCIctzay9kcw6Zx6KeV9ZPe1/PLft0kwEDDDDAAAMMMMAAAwwMmwGFLPPDZt7jZX46DKSYzDyr9VaLzXou6cVyX+vyTsta95P76zr5mn3V++vPnZbVbW52rGybkbn1nFv3mftSEOe+fF9vdVmW5/u6vJuvA1/IppRMAZu5IGbNmlVuGfKcwjXlZmshu2rVquaOO+4o62SIdFr2WmoeO3asDEWu+5gzZ04zf/788gls2U8+iS1Dluukxbfddlszd+7csizFay5OStbMT5Hh1ZlAOF9nz55dhk1v2bJl5FgnT54sEx/nWNlPjpXWPqVs9tNayObYafEXLFgw8vhy3MxlkQmWu0Fhm//3ZJOFLBhggAEGGGCAAQYYmLkGFLIz99p53rl2DDAwyAYGupBNWXnixInm4YcfLkVpitGMOk3ZmmHRKUhbC9lM3vv22283b7zxRpmnItMY5NPTUspmToqUoxnxmpGxKVBT3maui9x/5MiRMt9EJjNOsZsSuE5I/NRTT5UJfzMqNsOds98UszlWhltn3okUuTlWzjlDqLPvTI6ckb3PPPNMKW8zAjbHai9kFy1aVO7P/jJhcoZQp+itEyEPMmCPzQs0AwwwwAADDDDAAAMMjGZAIcvGaDYsZ4MBBqbTwEAXshlunLkoUm6+8sorpczMsowezajT/Jp/ayGbIjSFZ4ralJyZ0DfrpCT96KOPyi3DklPKprxNsZuiNvushWzK3zpdQIrblK8pYVPG1kI2+80ExNlvStiUsxm1m091C4ZHHnmk3HIuly9fLiNjs5+VK1eW4dnthWzK3Iy2zbleuXKllL8ffvhhOd/pxOXYXtwYYIABBhhggAEGGGBgOg0oZPmbTn+OzR8DDIxmYOAL2fppaxk5WkPIr/6niM3EvK2FbNZJSZpCNiVqitOUqtkuZWomEs7UBylHU8ZmZGt7IZuRt5lyIPs5fPhwWTcTDrcXsplmIPvNuil/U6qmkE1Bm33nGDlWvdVPb8t+WwvZlLY51zrKNutnX9lv7quP2VcvAgwwwAADDDDAAAMMMDBsBhSyzA+beY+XeQZmhoGBL2RThmYagdZCthVnayGb6QE6FbIpNjPtQErPjIDNCNlMD5CRt90WsrXobS9kM+9rCtmUwbWMrV+zLCVyayGbx5LRuxmxm1G2KXJzy3y2GRWcx9P6eH0/M56YrpPrxAADDDDAAAMMMMDArRtQyN56hhzKkAEGGJh8AwNfyK5bt66Uk/v27SvlZArKlKCZViBfb1bIZhqAFJ6ZEiClZz6BLbe33nprSgrZnFMK2RTJma4gn9qWKRFS1GbkbvsI2TwpsixFbbbN9AcZcZtSNgVt/SAwT57Jf/LIVKYMMMAAAwwwwAADDPS3AYVsf18fzx/XhwEGhtXAwBeymav19ttvb5599tky/2oKznzo1qxZs5rXXnutFJb5EKwUmJ1GyKaQTXmb0bALFy4so03PnTvXPPfcc6XoXbt27Q1zyI53yoJOI2QPHTpUytX58+eXAjhTHmTO2pS/f/zjH8so3Ry7dYTsl19+WT6EbPny5aWUzT84UhhnNG1GBqdwHlbcHrcXdgYYYIABBhhggAEGhtuAQna4r7/nv+vPwPQayADD9FgTuQ51m37/je+cZ27dnudAF7IJJXOypkhNKbt169ZyS/ma0a6572YjZFOcpvRcsGBBKWBffPHFZtOmTaWgzUjWZ555puCqH+o1GYXs5s2bSyGbuWFTGmefOefMMZvH1F7I5vHNnTu3eeGFF5p8MFnOMQVyzi0jZycC37rT+2Ilf/kzwAADDDDAAAMMMDB5BhSyk5cll7JkgIGJGEh/tX379mbLli3jHiyYDmvnzp2lu8tvik/keL1cN+eZwZPbtm1rPvzww67Oc6AL2VyMAMhI00ceeaSMis3I2MwDm5GvuT8ftpXCMwXm/v37y/qZGiCFbaYpyKjZzCG7Z8+eMofs7Nmzy8jTHTt2lCkBMldr9vPBBx+U9TO6NVMH5LgpUFMEZ1/ZZ24pT+t+s13WzTbZTz2nrLdx48Ymx8r5Zh+50LVcXb9+fVmWUbo5TkbwZpRvXT/bLF26tDl+/HhXKHJebjJggAEGGGCAAQYYYICBmW5AIcvwTDfs/BmeqQbSpeW3t+fMmVMGRKa/utljybSbmYYzPVj9LfKbsDHvyQAAIABJREFUbTMd9+c8M4gyv5m+a9eumz6uTuc48IVsHnQuehrrFLMpSfN9YOS+lJz1vpSzdVlKzqxff+U/62UUbJblay1CAyT35WLU+2pxmm2zLPvKstzqfluPVfdbj5V9Z38512yfW+vFy5y2WXbixImyPOvXZXX9/Jzlrdv53gs5AwwwwAADDDDAAAMMDJMBhSzvw+TdY+W9nwykd8uAyAxAzG+oj6ejShe2ZMmS8tlK9bfE++kx1XPJeS5btqwUzrt37+6qexuKQrYGlos/GoBOy8ezrHWd1u9bj1m/r187rVfva/2a9eqtdXm+77SPum6n+9q397MXagYYYIABBhhggAEGGBh0AwpZxgfduMfHeL8a6FTIZj7Z3NJb1e9b55htL2TrOpmrtdPjrPPNZr32deox6oDMbF+X1XVbf67f12O2Hy/7qfdlwKVC1q/Xd0TZDsfPXqQZYIABBhhggAEGGGBg2AwoZJkfNvMeL/P9YqC9kM1vcs+bN6/cMu3ngw8+WKYGzecz1d80by1k9+7d2zz22GNlnZSf+Xyn1seW/eezkzJtwL333lvWrb+Nnvsy9WimJ83nLKVszbKMZs10CKtXry4/57fYM61CphfNb89nP7llWfux3njjjTIFaY6X75cvX26EbGtIvvfiwwADDDDAAAMMMMAAAwwwEAMKWQ68FjDAwPQY6FTI5vOdUnjmg+vzeUspaPN95mPNdaqFbJalqF2wYEG5pQTN+vVaZsrPfJZSXSeFarbJZzSluM2xU+jmM5w2bNgwUsi+/fbbZVk+kynrpJB94IEHRs4p+8k0C9nXqlWryvFS5uaDyXIODz30UDmPfM2xU9yassBI2RGYFaiv0/OiI3e5M8AAAwwwwAADDDDQHwYUsv1xHTwfXAcGhs/AaIVsys5XXnmluXjxYrN///5SiKYI/fjjj0cK2ZS2KUSzj5S0KVpTiB48eLAsywdppWxdvHhxKVsvX77crFmzpoyI3bZtW5laYCKFbM5p586dTfaT0a/5eenSpU1G3OaWeW2zLPvOeefzmzLCVyGrjFXGMsAAAwwwwAADDDDAAAMMtBlQyA5fCaT4c80Z6A8DoxWyGYGakam5Tvmw+vycwvX48eMjhWxGn77zzjulfM16mXYgJW1GqmYe16effrqUrylGc5ysk2kQUpDWkbQTKWQzEjcfPJb95NxSvi5atKj59NNPy1QGKV8zkrZOiZCSOIWtQrbtL90E6CYDBhhggAEGGGCAAQYYYGC4DShkh/v6e/67/gxMn4HRCtlMW3Ds2LHS26WETSGbQrS1kM1o2Pfff7+Mfs013Lp1aylJ165dWwrYlK4ZIXvy5MmR/i+FapbX4nQihWzmqq2FbIrd1kK2/pxpCmr5mzlvUworZBWwIwC92Ezfi43sZc8AAwwwwAADDDDAQH8ZUMj21/Xw/HA9GBgeA2MVsvkArVgYq5BNEZr5W7NepjhISfrCCy80Z8+eLVMVtBey+dCwFLvthWzmi60f6lU/6Kt9DtmxCtmUxymNWwvZzFO7YsUKhawn9PA8oV1r15oBBhhggAEGGGCAAQbGa0Ahy8p4rViPFQYm18CtFLKZnuC1114rI1IzGnXdunVlyoLM4Xr+/Plm9erVZcqCzEGbgjaF63vvvVc+aCvzymZZyteUtlk355Jlr776ascP9RqrkM3I2cxxm9GwmWIhTvKhYplX1ghZI2SNkGWAAQYYYIABBhhggAEGGGgzoJCd3IJFYSVPBhgYr4FbKWQzGjbFauZszcjXFJ+ZV7bOGfvuu++WnzMaNvO8pmx98sknS0m7e/fu8vORI0dK+ZrpD1KgZl8Z6ZqydyIjZOto2DpCN48rH/yV81HItv2lO14c1vNCwgADDDDAAAMMMMAAAwwMrgGF7OBeW89b15aB/jZQC9mMUs0o0xSrmT923rx55YOycv3qlAXtH+qV0jRTBKRMveuuu0qJmvljMzo22+VDtVatWlWmJ8j9OUa2qXPMZp2Mms0UBlmedVKgrly5snzfWsimVM0I2NHmkM1+Dhw40OSDvbKPHCtFcLZTyCpkvRPOAAMMMMAAAwwwwAADDDDQZkAh29+FjULN9WFgcA2kyMw8qxnpmlGsKTyfeuqpcqu/+p+SNuvkA7I+/vjjJqNRU6o+8cQTTeaQTXG6dOnSkbljW71cunSpefnll8vUAVmntbCt6+U4GTmb+7dv395kZO2iRYvKdimMUwgvW7asefbZZ8s5ZrvMGZttMtVBRtVm2blz50opm8eSc0tBm/lss97Bgwe7+ru3mcQ/f5jEfXXc1fXr17t6kPVC+Dq4T3TX1rVlgAEGGGCAAQYYYICBdgMKWSbaTfiZCQZ6Z+DChQvNxYsXy2jVFLT5Obd8n+vQaVlGwWabFKZ1+zoytv3a1XWzfqd1sv/cl1tK1eyzfj/a8es2OXbr8TItQt1Xvs/xsk722breeL/vWHx2uVAh2/Zu7HgvgvV692Iga1kzwAADDDDAAAMMMDA8BhSyw3OtPa9dawYYmEkGuuxeO26mkFXIdvWuwEx6wjhXL/AMMMAAAwwwwAADDMwcAwrZmXOtPK9cKwYYGCYDHZvVLhcqZBWyClkGGGCAAQYYYIABBhhgoG8MKGQVPMNU8HisvDMwcwx02b123Ewh6x9effMPLy9CM+dFyLVyrRhggAEGGGCAAQamyoBClq2psmW/bDHAwK0Y6NisdrlQIauQVcgywAADDDDAAAMMMMAAA31jQCGrMLmVwsS2/DDAwFQZ6LJ77biZQtY/vPrmH15T9YSxXy/GDDDAAAMMMMAAAwzMHAMK2ZlzrTyvXCsGGBgmAx2b1S4XKmQVsgpZBhhggAEGGGCAAQYYYKBvDChkFTzDVPB4rLwzMHMMdNm9dtxMIesfXn3zDy8vQjPnRci1cq0YYIABBhhggAEGpsqAQpatqbJlv2wxwMCtGOjYrHa5UCGrkFXIMsAAAwwwwAADDDDAAAN9Y0AhqzC5lcLEtvwwwMBUGeiye+24mULWP7z65h9eU/WEsV8vxgwwwAADDDDAAAMMzBwDCtmZc608r1wrBhgYJgMdm9UuF055IXvt2jWFn9KXAQYYYIABBhhggAEGGGBgXAYUsgqeYSp4PFbeGZg5BrrsXjtuNuWF7Ndffz2uv3QBnDkAXSvXigEGGGCAAQYYYIABBqbKgEKWramyZb9sMcDArRjo2Kx2uXDKC9m///3vzenTp5Wy3g1ngAEGGGCAAQYYYIABBhgY08CZM2eac+fO3fS/t99+++2Y+7mV/3DbVmHDAAMMMNDJwE3/cprAClNeyP7www/N2bNn/WXpH14MMMAAAwwwwAADDDDAAANjGjh//nzz5z//+ab/pf3Xv/415n46/UfaMgULAwwwwEA3BvJm4YULF276d9NEVpjyQvbXX38tI2SNkoW+G/S24YYBBhhggAEGGGCAgeExcPHixea777676f9pf/zxR4Wscp8BBhhgoCcGxvtm4U3/8mpZYcoL2Rwr0xb4cK/h+UeUfzC71gwwwAADDDDAAAMMMNCNgYxA+u2331r+yzr6t5naIKOWujmObfhkgAEGGBivgfzdNJ43C0f/G+v39/SkkM1fqJcuXWrSKI/3wVrPE4MBBhhggAEGGGCAAQYYGB4DV65caTIVwXj/fP/9983169f9H9MIOQYYYICBKTWQQjYzAEzmn54Usjnhn3/+ubl8+XKTv2TNKTs8/6jyD2jXmgEGGGCAAQYYYIABBkYzkKntMtI1A3i6GX2U+WYN/OFrNF+Ws8EAA7dq4OrVq03eAJzsPz0rZOuJ59Mw85dtStn8eombDBhggAEGGGCAAQYYYICB4TOQ/xPmllI1c8J28ye/jZnp8VLq+twSxcutFi+2Z4gBBqqB/J2S2w8//NDNX0833abnhexNz8gKEpCABCQgAQlIQAISkIAEJCCBCSSQzy3JKCbF/vAV+665a84AA5NpIG8UZoqCr7/+uvnpp58m8DfRxFZVyE4sL2tLQAISkIAEJCABCUhAAhKQgAQkIAEJSEACEug6AYVs19HZUAISkIAEJCABCUhAAhKQgAQkIAEJSEACEpDAxBJQyE4sL2tLQAISkIAEJCABCUhAAhKQgAQkIAEJSEACEug6AYVs19HZUAISkIAEJCABCUhAAhKQgAQkIAEJSEACEpDAxBJQyE4sL2tLQAISkIAEJCABCUhAAhKQgAQkIAEJSEACEug6AYVs19HZUAISkIAEJCABCUhAAhKQgAQkIAEJSEACEpDAxBJQyE4sL2tLQAISkIAEJCABCUhAAhKQgAQkIAEJSEACEug6AYVs19HZUAISkIAEJCABCUhAAhKQgAQkIAEJSEACEpDAxBJQyE4sL2tLQAISkIAEJCABCUhAAhKQgAQkIAEJSEACEug6AYVs19HZUAISkIAEJCABCUhAAhKQgAQkIAEJSEACEpDAxBJQyE4sL2tLQAISkIAEJCABCUhAAhKQgAQkIAEJSEACEug6AYVs19HZUAISkIAEJCABCUhAAhKQgAQkIAEJSEACEpDAxBJQyE4sL2tLQAISkIAEJCABCUhAAhKQgAQkIAEJSEACEug6gZ4Xsr/99luTmz8SkIAEJCABCUhAAhKQgAQkIAEJSEACEpCABPolgV51lj0tZPOg/vWvfzXXr19vzp4923z99dfNn//8ZzcZMMAAAwwwwAADDDDAAAMMMMAAAwwwwMC0Gjh37lxz8eLF5ttvv21++umnKeuJe1bI/vLLL6WAzQO6dOlSKWS/+uqrxk0GDDDAAAMMMMAAAwwwwAADDDDAAAMMMDDdBk6fPt2cP3++uXLlSpPvf/jhhykpZXtWyF69erU0zNMdrON7cjPAAAMMMMAAAwwwwAADDDDAAAMMMMDAWAby2/1nzpwpv+0/2a1sTwrZf/7zn83ly5eNhjUimAEGGGCAAQYYYIABBhhggAEGGGCAAQZmhIGMkr1w4ULz66+/Tmon25NCtjbKY7XO7vOuBAMMMMAAAwwwwAADDDDAAAMMMMAAAwz0k4HMK5vPxJrMP1NeyP74449leG8/BelcPLEZYIABBhhggAEGGGCAAQYYYIABBhhg4GYGMqfs119/PZl9bDPlhezf//73MgnuzR6c+z0BGGCAAQYYYIABBhhggAEGGGCAAQYYYKCfDGQe2YsXL86sQvabb76ZEXNC9NOFdi5eeBhggAEGGGCAAQYYYIABBhhggAEGGOgPA6dOnZpZhey1a9cUsiZqZoABBhhggAEGGGCAAQYYYIABBhhggIEZa2AyG9kpn7Lg+vXrMzZo70L0x7sQroPrwAADDDDAAAMMMMAAAwwwwAADDDAwnQYUst5NUHIzwAADDDDAAAMMMMAAAwwwwAADDDDAQI8MKGR7FPR0tu6O7V0fBhhggAEGGGCAAQYYYIABBhhggAEG+sOAQlYh690PBhhggAEGGGCAAQYYYIABBhhggAEGGOiRAYVsj4L2DkR/vAPhOrgODDDAAAMMMMAAAwwwwAADDDDAAAPTaUAhq5D17gcDDDDAAAMMMMAAAwwwwAADDDDAAAMM9MiAQrZHQU9n6+7Y3vVhgAEGGGCAAQYYYIABBhhggAEGGGCgPwwoZBWy3v1ggAEGGGCAAQYYYIABBhhggAEGGGCAgR4ZUMj2KGjvQPTHOxCug+vAAAMMMMAAAwwwwAADDDDAAAMMMDCdBhSyClnvfjDAAAMMMMAAAwwwwAADDDDAAAMMMMBAjwwoZHsU9HS27o7tXR8GGGCAAQYYYIABBhhggAEGGGCAAQb6w4BCViHr3Q8GGGCAAQYYYIABBhhggAEGGGCAAQYY6JEBhWyPgvYORH+8A+E6uA4MMMAAAwwwwAADDDDAAAMMMMAAA9NpQCGrkPXuBwMMMMAAAwwwwAADDDDAAAMMMMAAAwz0yIBCtkdBT2fr7tje9WGAAQYYYIABBhhggAEGGGCAAQYYYKA/DChkFbLe/WCAAQYYYIABBhhggAEGGGCAAQYYYICBHhlQyPYoaO9A9Mc7EK6D68AAAwwwwAADDDDAAAMMMMAAAwwwMJ0GFLIKWe9+MMAAAwwwwAADDDDAAAMMMMAAAwwwwECPDChkexT0dLbuju1dHwYYYIABBhhggAEGGGCAAQYYYIABBvrDgEJWIevdDwYYYIABBhhggAEGGGCAAQYYYIABBhjokQGFbI+C9g5Ef7wD4Tq4DgwwwAADDDDAAAMMMMAAAwwwwAAD02lAIauQ9e4HAwwwwAADDDDAAAMMMMAAAwwwwAADDPTIwMAXsqdPn27OnTvX8dbehNf12pff6s9nzpwpxz979myBXX/O11vdd/v2dd/1WO33T8XP9ZhTsW/79I4VAwwwwAADDDDAAAMMMMAAAwwwwMAgGRjoQjZl7AcffNC89NJLzcsvv3zDbfv27U1rIfrll182mzZtajZu3DjhkvRm5efhw4fLvl9//fVyzL179zYbNmxoDh061OQcbxVU9lH3k33mcbz55pu3vN/xnte7777bbNmypTl16lTPjjnec7OeF2wGGGCAAQYYYIABBhhggAEGGGCAgX4yMNCFbArXt956q5k7d25z991333C7//77m5UrVzYpU1NmfvbZZ82cOXOa2267bdzFYra7cOFCs3PnzhvK3fYLnCJ29uzZzaOPPtqcP3++Wb9+ffm5vRRu3248P+cxfv75582xY8dKGfrqq6+WfT/++OMjJe149tPtOskg5fLSpUt7crxuz9N2XngZYIABBhhggAEGGGCAAQYYYIABBvrBwMAXsrt27WruuuuuUsbecccdTb3dc889ZVlGz6bUzOjODz/8sNzGe2FS4q5YsaIUrGONks162feJEyfK1AUvvvhiOY/XXnttzCL3ZueR837//febhQsXltG2Wf/TTz8dOdbNtp+M+1PILlmypMljyvlMxj7tw4sjAwwwwAADDDDAAAMMMMAAAwwwwMCgGhiKQjYlbKYsyLQEGU36xRdfNM8991xz7733NgsWLGg++eSTUiSmVG0vVuuyfG0tHPN9RqNm5O0LL7xQRsoGSZZn3RSVddv6fe7LPLWthWx+bl2vQmvdZrRleRwpYx966KEyNUP232m71vNqfxy5r32bej7ZXz32WF8z2jjTMIy1jvu8iDLAAAMMMMAAAwwwwAADDDDAAAMMMPDVZPaxzR8mdW8ddnb9+vUJlX4pFDNCNoXs5s2bbyhUU8KmjH3wwQebzIGaUawpaO+8886RKQsy+jQ/p3TNKNtMAxA0KSxT8Oa+++67r2yX/WR06vLly5vbb7+9lLXZX+5PcZsRuU888cTvCtmUs3U/77zzTtl/CtKDBw+W8169enU5nzyW/fv3l31nVG7O48knnyzHzjFyfpk2YMeOHeVYua8V+LPPPjvyWObNmzdSQrfv98iRIyPrLVq0aCSL1n3V73OeySiPLXPX1uW+enFlgAEGGGCAAQYYYIABBhhggAEGGGCgs4EOtWfXi2ZUIZtSddWqVaVMzByvKWQz0jPlYrCk/EyRm/IyxWRGoqaYzfcpIjPdwMMPP1wK0XxNAZp9ZF7aFKTZTwrcNWvWNLt37y7LUpjWEbK5P0Xs/Pnzm8WLF48Uu5kLNiVpytkcL9tnOoUsO3DgQClen3rqqXKOuS/nnFvmp83PKWRz/BTDOc+Mos05ZV85nxzrgQceKKNqUyDX/eb+3FIsZ518zTlmntvRnjzZNh8elsdQRxmPtq7lnZ+AcpELAwwwwAADDDDAAAMMMMAAAwwwMFwGum5fO2w4owrZlImZPzYlZErH9kJ27dq1pdjMB1Zdvny5THewbt26JiNNjx49WorVbJeRqVnnypUrpQBN+ZkiM2XvpUuXyod45UO/UpK2FrI5bp0uIdumZE0BvGnTprLNeArZPFmzj0xZkDlq84Fhb7zxxkghm8e4Z8+est+UrFk/x8oUC3UahxTEKXpzPjnHw4cPN1evXi3z4mZZckix2+mFIaX2008/XUb+ZiqITutYNlwvKK63680AAwwwwAADDDDAAAMMMMAAAwyMbaBDr9r1ohlXyKZITen4yiuvlLllW0fI5r4Uq4899lizdevWZtu2bc1HH31UysoUnSkpszyF7Pr160fmjU0hm2WZUzXrBWCnQjaFaI6bQjT7Ssmbc8lI2xSr4ylkUyLXQjZTB+RYrYVs9p0COcfKtAz1fPLhYhklm9G/mVe3jrzNsbNObpkyISN4U7iOVshm5G6On/l4R1vHE3DsJ6B85MMAAwwwwAADDDDAAAMMMMAAAwwMl4Gu29cOG864QjZFYkrX9ikLUjQeP368TFMwZ86cUkymnMwcsBldmvvHKmSzbgrVWlKOVsjmuLUkza/8pxDOaNcsm4xCNiNYM9VCCuI8nno+KXIzfUFGxJ48eXKkkK1TIeT4+/btK4/7mWeeGdmu/cWhFrt5HHXf7ev4ebheUFxv15sBBhhggAEGGGCAAQYYYIABBhgY20CHXrXrRTOqkA2MzAebkaIZIdo6ZUGds/Xjjz8uv8Kf+VTzQV311/rffvvtUkCONkI2hWxGmNaydbRCNqNZ6zopRlOQpkBtLWQz4rYWwNlnytVanGYO2MzfmhK30wjZFLIZ9ZrzSXlanwzZLsfJh46lCK4jZOt+x1vI5pg554y+VciO/USr2fsqJwYYYIABBhhggAEGGGCAAQYYYGC4DXTdvnbYsK8L2ZSnFy5cKFME5Ff5MwVBysRHHnmkTEXQXshevHix2bJlS/Pee+81KTBzy4jalJibN28u5WY+QCslbfuUBeMpZFOsZvRppidImZkRsZlaYMWKFeU8U75m37WQTUmaD9DKslqcpqhNqTxaIZvHmXlvs99du3aNTKtw5MiRMjI4o2Sz324L2XywWfLIeXghGe4XEtff9WeAAQYYYIABBhhggAEGGGCAAQbGZ6BDr9r1or4tZFN+pnxNeVhv9eeUrCklWwvZzKuauVezbj7UKj/nQ6uWLFlSphVIMRpgGfmaKQ/qPKspVlOgjqeQTbGaWwrfjGRNMZzzzL7zc6YYyP1ZltGtOb86qrW1kM2HdWWUb6YYSDHaOodszqeWr3ksmQM3j3X58uXlHN96661SUHdbyOZD0XJ8o2PH92TzoiQnBhhggAEGGGCAAQYYYIABBhhggIGu29cOG/ZtIZuCtBax9Wvma00JmoIyhWIKz5S0KUHzxMiHbGU6gPycEaa5ZdvMI/vFF1+UdTKqNWVo1sl9GUWbEa5Zt33KgtyfQjejVjMPbYrWfKhWjln3vXTp0pHRpillU3Zmu5x/jpGyt37NOebcV69eXUrh7COjZTNqN9ssW7asnGNK2ueff77JtAtZpx5rzZo15XHnsaeQzTGy/7rfFLxZt5bN7S8WKalT7K5ataqM8m2/389eXBhggAEGGGCAAQYYYIABBhhggAEGGPi9gQ69ateL+rKQTTGacjJlY+vtxRdfLCNRK4qUrBl5mpIxJWYtarMs26VozWjaOsVAtkuZmVGiuT9ztWYe2Pyc7w8fPjwycjSFZ9apUxvkV/1TvubcMko1x0zxmRGs9XzyNedUzznTJHzwwQflsWzcuPGG9XJuWS9TIKRIzfcbNmwYWSfTL7z66qvlOLkvo34zfUN9DJkLNhnl3OuyQ4cOlcfx8ssvjzyO1nNLIZv95LElq9b7fP/7J5pMZMIAAwwwwAADDDDAAAMMMMAAAwwwEAOT+afvCtk8wJSFKSRTQLbeUqy2Pwnq/a3L67L6tfW+fJ/95L4cIwVtfs73rSVlvs869ZgZJZt1Mgo2t7rvbN+6//xc78s29bHU/dR16zr5WvfXvk62b12vbpuvnfZbl2W71nVbv88xcrzWZb73wsIAAwwwwAADDDDAAAMMMMAAAwwwwMDoBga+kHXxR7/4spENAwwwwAADDDDAAAMMMMAAAwwwwAADvTWgkP2qt4EDLm8GGGCAAQYYYIABBhhggAEGGGCAAQaG14BCViFrygEGGGCAAQYYYIABBhhggAEGGGCAAQYY6JEBhWyPgvaux/C+6+Hau/YMMMAAAwwwwAADDDDAAAMMMMAAA9WAQlYh690PBhhggAEGGGCAAQYYYIABBhhggAEGGOiRAYVsj4KuDbiv3g1hgAEGGGCAAQYYYIABBhhggAEGGGBgeA0MVSF79uzZ5ty5c+UG/fCid+1dewYYYIABBhhggAEGGGCAAQYYYICB6TIwNIXsmTNnmh07djQvv/xys2nTpuaLL74wDNvoYAYYYIABBhhggAEGGGCAAQYYYIABBhjoqYGhKWRPnTrVPPTQQ81dd91Vbu+//35z+vTpnoY9Xa2743rHhwEGGGCAAQYYYIABBhhggAEGGGCAgf4wMBSFbIrXFLB33313c++99zb33Xdfs379emWsdz8YYIABBhhggAEGGGCAAQYYYIABBhhgoKcGhqKQzXQFmabgnnvuaZYtW1YK2Xz9/PPPO4aduWbrrdMo2iyr92ff7e8utN6f9drvz891+3zttI8sa12n03l02q9l/fFOh+vgOjDAAAMMMMAAAwwwwAADDDDAAAMMdDIwFIVspit48sknmwcffLDZvXt388ADDzTz5s1rTpw48buy9KOPPipTGmQ0bQrcrVu33rDOl19+2bzwwgtltG2mP3jkkUduKHZTnO7Zs6e54447yjrZz+HDh2/YR36+8847R/bx+OOP33B/5rddunTpyPbZx7Zt20yx4N2aG5x0ekJb5oWeAQYYYIABBhhggAEGGGCAAQYY6G8DQ1HIpnidP3/+SHn6pz/9qRSib7zxxg2jU1OUZjqDzDW7ePHi5tFHH21uv/325p133illaMrWDRs2lG1TouZ2//33Nw8//PDIh4Tt3bu3FLnZNvvIfVnn2LFjZR/79+8vZW0K4UWLFjULFy4sxWu+T9kK66HCAAAgAElEQVSbYzz77LMjy7KPnE9K2QMHDihllbJKWQYYYIABBhhggAEGGGCAAQYYYICBGWxgKArZXbt2lZI0o2TPnTtXis2MYH3mmWfKtAD1XYM1a9aU4jOjUS9fvtx8+OGHZbRsytxsl3loU9CmJM02WbZixYqyzc6dO8uy5cuXl1L3k08+aa5fv968/fbbpcB98cUXy/rr1q0r9+fnHCMlbJalhD169GiT0byZ5zajb/P9tWvXmhTHTz/9dBkl22l6g3r+vvb3ux+uj+vDAAMMMMAAAwwwwAADDDDAAAMMMDDwhWxGnOYDvDJFwI4dO0oJGvgZoZqpCzKPbNZJ+fnEE0+UcjVTBtRlr776avPSSy+Vn7dv316K3Y0bN5byNescPHiwyc8ZRXvy5Mmyffad7V555ZVSombUbUrcFLgZYZupEB577LEyHULK30yTcPXq1ZHRuhlVmxGxa9euLdu//vrrzcWLF5sLFy5492MGv/vhBdcLLgMMMMAAAwwwwAADDDDAAAMMMMDAUBSymT4gJWhGmWY0aorOWnq++eabZZRsitlMDZD1Wp8YKVFzS/n6/PPPl9GrmzdvHlknI1Zzfz6AK1MjZPvcZs2aVW6zZ88uo2oz4jX7PX78eJmmYM6cOaUkTlGcIjjz0qYUzjopfrP+3Llzy9d8nxG0mVIh59F6fr73JGaAAQYYYIABBhhggAEGGGCAAQYYYGDmGBjoQjblZZ12IKNUa1mar/k5UwNkGoOUqhkVu2DBgrJOa+l5/vz5Mjo1hWtGwmabLVu2jJSiWZ7Rq1kvhWxGti5ZsqRMP5AC9YMPPiglbM4jhWv2/fHHH5dyNQVwpkDINjmfTG+QJ0/Wy5yzKYtTytYPCFu2bNnIcT3JZs6TzLVyrRhggAEGGGCAAQYYYIABBhhggAEGqoGBLmRTlmbagBSeuWWkaestJWhK2Ew1kBI05WzuryNRsyyjah988MGyLFMepMx97rnnyvopcjM/bYrVjJ7NKNta9KZ4zf3ZV6ZGyH4ykjbTDqTQfe+995pPP/203LK/FL2bNm0qhWumMMg62T7nlvlos488hsw5Wy+er57IDDDAAAMMMMAAAwwwwAADDDDAAAMMzCwDA13IprzMB3KlRM1crylJ6y2jVHNfis46MjVzxaYYXbp0aSk9jxw5UkrQRYsWlXK0TkmQ0jYjWFPYZtTq/fffX4rZ7HvlypVlm3xoV0bN5oPDsv6ePXvKsTP1QI6RDxDL+aXEzYja7CMjYnNeOd9sk+OnlE15m1GyCxcuVMaaQ5YBBhhggAEGGGCAAQYYYIABBhhggIEZbGCgC9mMTk3R+cgjj5TpBNrfLVi+fHkpP1PE5r6MRM18rilEU4BmfteMjk0hmrI1I27feuutss/cl3VSrmZkbaY8yD5S/KboTaGa+7Ovp556qtyffRw9erTcn9Guub/uI8fNPlLAZnRszrseI19THO/bt6+cR/vj8PPMehfE9XK9GGCAAQYYYIABBhhggAEGGGCAgeE1MNCF7IEDB8qI1fXr148UphV7is8UnBnhWgvZOnp2xYoVZbuMdt2/f38pSet2KWV37txZ7s96GemakbDZNuvk/swXm/1m+0xVkOX1/hw336ekzf3ZR6YsqB8clnWzv61bt5b7sk5uKYKz73oevg7vk9a1d+0ZYIABBhhggAEGGGCAAQYYYICBmWtgoAvZlJ+ZszUFZyekKTg73Z9l9dapBK3b1XXa953j5oO+Rrs/69f76tf2fdT5Zuv9nc6jfRs/z9wnomvn2jHAAAMMMMAAAwwwwAADDDDAAAPDYWCgC1mIhwOx6+w6M8AAAwwwwAADDDDAAAMMMMAAAwzMFAMK2Rk8AfBMQeY8vSAywAADDDDAAAMMMMAAAwwwwAADDDDw/xtQyCpkO07n4AniRZIBBhhggAEGGGCAAQYYYIABBhhggIHJN6CQVcgqZBlggAEGGGCAAQYYYIABBhhggAEGGGCgRwYUsj0K2rsJk/9ugkxlygADDDDAAAMMMMAAAwwwwAADDDAw0wwoZBWy3v1ggAEGGGCAAQYYYIABBhhggAEGGGCAgR4ZUMj2KOiZ1tQ7X+8uMcAAAwwwwAADDDDAAAMMMMAAAwwwMPkGFLIKWe9+MMAAAwwwwAADDDDAAAMMMMAAAwwwwECPDChkexS0dxMm/90EmcqUAQYYYIABBhhggAEGGGCAAQYYYGCmGVDIKmS9+8EAAwwwwAADDDDAAAMMMMAAAwwwwAADPTKgkO1R0DOtqXe+3l1igAEGGGCAAQYYYIABBhhggAEGGGBg8g0oZBWy3v1ggAEGGGCAAQYYYIABBhhggAEGGGCAgR4ZUMj2KGjvJkz+uwkylSkDDDDAAAMMMMAAAwwwwAADDDDAwEwzoJBVyHr3gwEGGGCAAQYYYIABBhhggAEGGGCAAQZ6ZEAh26OgZ1pT73y9u8QAAwwwwAADDDDAAAMMMMAAAwwwwMDkG1DIKmS9+8EAAwwwwAADDDDAAAMMMMAAAwwwwAADPTKgkO1R0N5NmPx3E2QqUwYYYIABBhhggAEGGGCAAQYYYICBmWZAIauQ9e4HAwwwwAADDDDAAAMMMMAAAwwwwAADDPTIgEK2R0HPtKbe+Xp3iQEGGGCAAQYYYIABBhhggAEGGGCAgck3oJBVyHr3gwEGGGCAAQYYYIABBhhggAEGGGCAAQZ6ZEAh26OgvZsw+e8myFSmDDDAAAMMMMAAAwwwwAADDDDAAAMzzcCMKmSvXbumqVcgM8AAAwwwwAADDDDAAAMMMMAAAwwwwMCMNTCjCtnr16/P2KBnWlPvfL27xAADDDDAAAMMMMAAAwwwwAADDDDAwOQaOHPmzGT2sc0fJnVvHXb217/+VSHr3Q8GGGCAAQYYYIABBhhggAEGGGCAAQYYmHEGTp8+3Zw9e7ZD69n9oikvZL/77rsmJ66Zn9xmXp7yZIABBhhggAEGGGCAAQYYYIABBhhgYGoNpIy9fPly9+1rhy2nvJD973//22RYLxxTi0O+8mWAAQYYYIABBhhggAEGGGCAAQYYYGByDVy4cKH55ptvOtSq3S+a8kI2p3blypXm3LlzSlnD0hlggAEGGGCAAQYYYIABBhhggAEGGGBgxhjIb/5nwOlk/ulJIfvrr7+WkI2UndyG3jse8mSAAQYYYIABBhhggAEGGGCAAQYYYGBqDGSA6ddffz2ZXWzZV08K2Rzpn//8Z5kA9+LFi6Yw8C7IjHkXxAva1LygyVWuDDDAAAMMMMAAAwwwwAADDDDQjwbqh3ilw8xv/f/8888zt5DNmecDvjIJbkbKpl2+fv26mwwYYIABBhhggAEGGGCAAQYYYIABBhhgYNoNpK/MnLHnz58v3eUvv/wy6WVsdtizEbL17DPnwr///e/m+++/LwVtSlo3GTDAAAMMMMAAAwwwwAADDDDAAAMMMMDAdBv44Ycfmp9++qnJFKxT9afnhexUPRD7lYAEJCABCUhAAhKQgAQkIAEJSEACEpCABCTQ7wkoZPv9Cjk/CUhAAhKQgAQkIAEJSEACEpCABCQgAQlIYGASUMgOzKX0QCQgAQlIQAISkIAEJCABCUhAAhKQgAQkIIF+T0Ah2+9XyPlJQAISkIAEJCABCUhAAhKQgAQkIAEJSEACA5OAQnZgLqUHIgEJSEACEpCABCQgAQlIQAISkIAEJCABCfR7AgrZfr9Czk8CEpCABCQgAQlIQAISkIAEJCABCUhAAhIYmAQUsgNzKT0QCUhAAhKQgAQkIAEJSEACEpCABCQgAQlIoN8TUMj2+xVyfhKQgAQkIAEJSEACEpCABCQgAQlIQAISkMDAJKCQHZhL6YFIQAISkIAEJCABCUhAAhKQgAQkIAEJSEAC/Z6AQrbfr5Dzk4AEJCABCUhAAhKQgAQkIAEJSEACEpCABAYmAYXswFxKD0QCEpCABCQgAQlIQAISkIAEJCABCUhAAhLo9wQUsv1+hZyfBCQgAQlIQAISkIAEJCABCUhAAhKQgAQkMDAJKGQH5lJ6IBKQgAQkIAEJSEACEpCABCQgAQlIQAISkEC/J6CQ7fcr5PwkIAEJSEACEpCABCQgAQlIQAISkIAEJCCBgUlg2grZf/7zn823337bXL16tbly5YqbDBhggAEGGGCAAQYYYOD/Y+9OnKQq8rUB3z/5joKCoig7qAjjgqgoiLugIiigLLLIDgKCIls3uO/XuXodZ9T84s34sqNk2qZtu4qu6seIE1V1ljx5fuepNuI9SRYDDDDAAAMMMMBAzw1cvXq1fPnll+Xrr78uP/30U9eD354Hsrmoy5cvlwsXLpTz58/X17y3qAEDDDDAAAMMMMAAAwwwwAADDDDAAAMM9NrAxYsXa07ZsspPP/20/Pbbb10LZnsayGZU7Llz58qHH35oUQMGGGCAAQYYYIABBhhggAEGGGCAAQYYmHIGEsxm1Gy3QtmeBbL/+Mc/6ihYYawwmgEGGGCAAQYYYIABBhhggAEGGGCAAQamsoH8C/9Lly51ZZRsTwLZpMnDw8N16O9ULrS++UPAAAMMMMAAAwwwwAADDDDAAAMMMMAAAzGQqQy++eabSQ9lexLIfvfdd/XHu2CGmQEGGGCAAQYYYIABBhhggAEGGGCAAQb6xUBGyv7yyy+TGsp2PZDN6NhMxJu5F/ql0PrpjwIDDDDAAAMMMMAAAwwwwAADDDDAAAMM5F/9ZyrWyfyv64Hsjz/+WIf3AgwwAwwwwAADDDDAAAMMMMAAAwwwwAADDPSTgcwj++mnn05mHlu6Hsh+++23Rsf6tTyjoxlggAEGGGCAAQYYYIABBhhggAEGGOg7A/mX/5m2YDL/63og++WXX/ZdofsppddXT5UYYIABBhhggAEGGGCAAQYYYIABBhjoroG+CmQzpBeI7oJQX/VlgAEGGGCAAQYYYIABBhhggAEGGGCgewb6KpD97LPPBLKGozPAAAMMMMAAAwwwwAADDDDAAAMMMMBA3xoQyMLbt3g9qenekxq1VVsGGGCAAQYYYIABBhhggAEGGGCgOwYEsgJZgSwDDDDAAAMMMMAAAwwwwAADDDDAAAMM9MiAQLZHhfZEoTtPFNRVXRlggAEGGGCAAQYYYIABBhhggAEG+smAQFYg6+kHAwwwwAADDDDAAAMMMMAAAwwwwAADDPTIgEC2R4Xup5ReXz1VYoABBhhggAEGGGCAAQYYYIABBhhgoDsGBLICWU8/GGCAAQYYYIABBhhggAEGGGCAAQYYYKBHBgSyPSq0JwrdeaKgrurKAAMMMMAAAwwwwAADDDDAAAMMMNBPBgSyAllPPxhggAEGGGCAAQYYYIABBhhggAEGGGCgRwYEsj0qdD+l9PrqqRIDDDDAAAMMMMAAAwwwwAADDDDAAAPdMSCQFch6+sEAAwwwwAADDDDAAAMMMMAAAwwwwAADPTIgkO1RoT1R6M4TBXVVVwYYYIABBhhggAEGGGCAAQYYYICBfjIgkBXIevrBAAMMMMAAAwwwwAADDDDAAAMMMMAAAz0yIJDtUaH7KaXXV0+VGGCAAQYYYIABBhhggAEGGGCAAQYY6I4BgaxA1tMPBhhggAEGGGCAAQYYYIABBhhggAEGGOiRAYFsjwrtiUJ3niioq7oywAADDDDAAAMMMMAAAwwwwAADDPSTAYGsQNbTDwYYYIABBhhggAEGGGCAAQYYYIABBhjokQGBbI8K3U8pvb56qsQAAwwwwAADDDDAAAMMMMAAAwwwwEB3DAhkBbKefjDAAAMMMMAAAwwwwAADDDDAAAMMMMBAjwwIZHtUaE8UuvNEQV3VlQEGGGCAAQYYYIABBhhggAEGGGCgnwwIZAWynn4wwAADDDDAAAMMMMAAAwwwwAADDDDAQI8MCGR7VOh+Sun11VMlBhhggAEGGGCAAQYYYIABBhhggAEGumNg2gWy58+fL1kuXLhQX8HqDix1VVcGGGCAAQYYYIABBhhggAEGGGCAAQb+08C0CWQTwJ47d67s2rWrLjt37iz79+8vly5d6tpw7AS/0P0nOjVREwYYYIABBhhggAEGGGCAAQYYYICB6WpgWgSyCWOPHj1ann322TJ79uy6zJo1qyxcuLC8/vrr5YMPPpj04PTixYvlyJEjk97udIXquv2RZoABBhhggAEGGGCAAQYYYIABBhgYBAPTIpB97733ysMPP1xuu+22uiSMTTB7xx131OXNN9+c1OA0Yezu3bvrOQcBiWvwx44BBhhggAEGGGCAAQYYYIABBhhggIHJMTAtAtkdO3aUuXPnljvvvLNs2rSpHDx4sOzbt6/Mnz+/rrvvvvtqIJspBoaGhurSphsYbV3wtf3aa0bhZn1eEwCn7XvuuacMDw+XBLQNbN63Y/LaztOOzbpMo9D26zz+8uXL9dis6zwux3b289rt6VPazfGtjW5O1dCu1evkfEnVUR0ZYIABBhhggAEGGGCAAQYYYICBwTEw8IFswshHH3203H777WXjxo01uEx4meWdd96pQW2bWuDdd98t9957b1mxYkU5ffp0DVGPHz9eli1bVpYvX16yPfhzbD4vWrSoLkuWLKltZVumRsj+CX/vuuuuuv3VV1+txyVkzRQJmSohxy5YsKCGt2kvxyY4Xrx4cVm7dm155ZVX6vYEu3mfQHXVqlX1uHnz5pWzZ8/WfrT+5Bpauznm8OHDNRzO9syVmz5mlPDjjz9e93vhhRfqObPdogYMMMAAAwwwwAADDDDAAAMMMMAAAwz0xsDAB7KBlBGwCWRHmyu2haHZ78SJEzWsTKB66tSpGlQeO3asjnZNoJntaSPBaEbcJnDNkvcJVxPiJhhN2Jp1bZ8WBG/ZsqXMmTPnd8e18DTnz9QJrb12bGunBbxt+9133z0SyKaPOX/rT17T7qFDh+o1ZDRw9m9t5f3WrVsFscJoBhhggAEGGGCAAQYYYIABBhhggAEGemxg4APZ999/vwaRS5cuLefOnRsT2PUC2YyQzZJwNOFm/tn/1atXyxNPPFGD3ASvmRIg+2S+2gTB+ZyRsWk7oXDC0oy6zXHPP/98XffUU0/VcLUzkM3o3Rz3yCOPjPT/zJkzJUvC4Zw/gWv2Wb9+fZ0Td+/eveXjjz8ub7zxxki7GSHcAtn0O6Nl06es99SjN0891FmdGWCAAQYYYIABBhhggAEGGGCAAQaagYEOZDP6NSNd8+NdCWTbRf/R63gC2ZMnT9ZQNW1u3ry5hp0ZFXvlypUa0OacmbYggWymP8i5Epq++OKLNSTdsGHDSBia0bYZrZopCDLvbAtkV65cWRIk59hnnnmmhq/r1q2roW3WP/jgg3Xd22+/XfdJOJvpChLIZkmYm3Yzh21nIJv+tKkY/qgG1vvjwAADDDDAAAMMMMAAAwwwwAADDDDAQPcMDHQgGzgZFdv+CX9Gl3ZOUZDtGeXa1nUGsi24vHbKggSimYc1o11vvfXWOjI1gWjmeU2omgD02kA26x577LEaDG/fvn0kGM76zOs6e/bsOtr1rbfeqn1N4JqwNn1/+umna/ja5nzN+jZqds+ePfWcGfmaZcaMGSNLAuGExplrto2Qzby3qYEvVPe+UGqrtgwwwAADDDDAAAMMMMAAAwwwwAADYxkY+EA2F5+pAxJQ7t69uwawrSAJRDNtQELLrGuBbJsvNusyvUDmY+1cl1Gy27ZtK2vWrCmzZs2qgWpeM5o1o2EnI5BN8DveQDbBa/qXHwzLqN28ZrRt5olNgNsZyCY0btfv1R8HBhhggAEGGGCAAQYYYIABBhhggAEGemtg4APZjH599tln649pJZjNiNfh4eEyNDRUMndrwsyMSE0o2wLZxYsX1/fBePjw4TqlQAtk25QEGc2a0DRTBOR9Rslm6oFsz+jatJspAvL5z05ZkP6MJ5BtUxa0H/PKeTLiN+dPG7m+hM7pY6YwyAhZgWxvv2D+oKk3AwwwwAADDDDAAAMMMMAAAwwwwECngYEPZHOxBw8erGFpQtNFixbV+WQzp2yCzPxT/0wnkP0SVmZ79tu5c2f98avnnnuufk4gmx/rSkCbEbNZEppm7thMHZApDNqcrZkWIO2mrQSyCUkT9v7Rj3q1+WHbHLJ/JpBN26tWraptZ4TuJ598UtLnjAjOvLU5vxGyvvSdX3rveWCAAQYYYIABBhhggAEGGGCAAQZunIFpEchmlGj+Kf+cOXNquJrAtS0LFiyoIWsQZr8HHnighqlt1GmC24wubSNkMwVA5n3N8W2fvCZsTfCZNrIksG37bNy4sa7L9AjpQzsu2zMaN9Mi5PwTCWQTuB44cGDketL2te0KZG/cF8wfN7VngAEGGGCAAQYYYIABBhhggAEGGOg0MC0C2VxwQtJTp07VUasZubpw4cKyYsWK3/2oV/bLiNOEsNm+bNmycuTIkfqaf+6fEbLZJ9MdZBRr9klbCVUzojbhaLa3kDRhb7Zn5GrWZ0qBzO/ajstr1rXjduzYUdtavXr1yI96JcRNGxs2bKhtJBDO3LVZl6kIcmyW9LO1m/Nm2oLW7v79+2ugnD77US9/AGLRogYMMMAAAwwwwAADDDDAAAMMMMDAjTEwbQLZAEtAmTC1cxkNXuf2zmNawJljLl++/Lt2Evh2tpXPrZ2EvG1bAti2Pq9tfV7bMWm7rc+x2S/HtXXt3J3n7Oxn9u/s62jttra83pgvnrqrOwMMMMAAAwwwwAADDDDAAAMMMDA9DUyrQBby6YncfXffGWCAAQYYYIABBhhggAEGGGCAAQamigGBrH++PTLydqqg1A9/IBlggAEGGGCAAQYYYIABBhhggAEGBtWAQFYgK5BlgAEGGGCAAQYYYIABBhhggAEGGGCAgR4ZEMj2qNCDmui7Lk+rGGCAAQYYYIABBhhggAEGGGCAAQYYGL8BgaxA1tMPBhhggAEGGGCAAQYYYIABBhhggAEGGOiRAYFsjwrtKcH4nxKolVoxwAADDDDAAAMMMMAAAwwwwAADDAyqgWkVyJ4/f750Lr28qTnvhQsX6vl7eV7n8seLAQYYYIABBhhggAEGGGCAAQYYYICBqWNgWgSyLQzdtWtX2blzZ8nr3r17exaO5vz79++v53733XcN/zYqmQEGGGCAAQYYYIABBhhggAEGGGCAgWlqYFoEsmfPni2vvvpqmT179shy9913lxdeeKFcvHix6/gzMvaee+4pN910U9m8eXPXz+eJx9R54uFeuBcMMMAAAwwwwAADDDDAAAMMMMAAA50GpkUgu3379nLHHXeUOXPmlFmzZtXl9ttvr+FsAtKMYO0symS/T/tvv/122bZtWzl+/HhXzzXZfdeePxgMMMAAAwwwwAADDDDAAAMMMMAAAwxMnoGBD2QThj722GM1jH300UfL4cOHy8GDB8uTTz5ZQ9r77ruvvP/++yMhaUazDg8Pl6Ghobp0hrXZlvWXLl0qly9fru87Xzth5rjWRjvu6tWrvxuR27lP9h1ttG5r/4+2d57T+8n7YqilWjLAAAMMMMAAAwwwwAADDDDAAAMMdMPAwAeyCUNXrVpVbrvttjpKNaFngtADBw6Uu+66qyxYsKCcPHmyBrLZlrll582bVxYtWlSWLFkysi3HvPnmm3X/p59+ujzwwANl4cKFZeXKlSOv586dGwl202bC3rSzb9++kjA450obuZFpL0Fw1mWfxYsXl4zkzfrOG50wOdvnz59fXnvttRoGd2733h8GBhhggAEGGGCAAQYYYIABBhhggAEG+sfAwAeyCTjXr19f7rzzzhp+njhxoiQ4zZJtnQHo7t27S+aWTVCbZe7cuTUoPXPmTN1v69atdVRt1md7QtKErXmfKRDyg12tzT179tR9s0+C3gcffLB+Thv5ghw7dqwe39pqbWR92sgxCX3T72zLkmkXEgZnmy9Z/3zJ3Cv3igEGGGCAAQYYYIABBhhggAEGGGCgGRj4QDYXmtA0o14TbmakbJaMmk04+8EHH9RwMwHtI488UkPPo0ePlo8//rhs3LixzjP78ssv15GpLZBNO6dPnx6ZvmD16tUj89EmLM2o3Oeff76eZ926dXW/zkA252pTJuSHxa5cuVL2799f98+I20xPsGPHjhryJkzOtAWnTp2qI3Yzojb9bjfQqy8zAwwwwAADDDDAAAMMMMAAAwwwwAAD/WNgWgSyCUk3bNhQR6lmpGl+3CsjWmfOnFk2bdpUw80ErBmBunTp0hqOZuqCjHLNCNa///3vNRRtgWzC3ISqgZ7RrAl802bC1ISxWXfPPffUdRnxmvN3BrIJgZcvX17P10bfZvqCJ554ou6X43OO9PWll16q0yi88847dcRsRvDmB8J8yfrnS+ZeuVcMMMAAAwwwwAADDDDAAAMMMMAAA83AtAhkM8K0/aBWRrvmn/1nTtcEngk4Dx06VKcQSCCbZcaMGSNLRtNmnwStLZDNvK4tkE0hE6pmvtgce+TIkTqCNYHvihUr6gjcHNsZyGb/jHTNSNt2I/LafgQsbWf/hMGzZs0a6Uvep93XX3/9d8d1tuG9LzcDDDDAAAMMMMAAAwwwwAADDDDAAANT18DAB7LvvfdenUM2I00vXbpUlwS0GZGawDSh6BtvvFED2YxyTbCaz5s3b67BZ36EK0FsRq3+USCbAHXt2rW1rYSlmYYg4WwbfTtWIJt22xck/Uoom88JZBMYP/vss2XLli11yY9+ZUno247xOnW/XO6Ne8MAAwwwwAADDDDAAAMMMMAAAwwwcK2BgQ9kz549W0eVJnhNKJv5WoeHh+uo1mXLltVRqAk525QF+RGubE94m+kGEow+99xzv5uy4NoRsilqm94gI28zXUHaOXDgQA1Orw1kM2XB/fffX6c0OH78eA17E+pm5G5+yCtz2GY+24yQTQicKQ8S3D711FN1ZG9G9F57I3325WaAAQYYYIABBhhggAEGGOIMRyYAACAASURBVGCAAQYYYGDqGxj4QDZB5po1a+qI1Uw9kDlisyxevLiOQE1wmoAzgWhC0jayNT/qleMyTcC2bdtqKPpHI2QDPSNu01bOkZGtCXvTZrZdG8hmfX7UKyFxwt2Mis0PdeXcS5YsqeHrq6++WgPb9Cnh8OHDh2v7ixYtquGxL9fU/3K5R+4RAwwwwAADDDDAAAMMMMAAAwwwwMC1BgY+kM0FZ8TpwoUL64jTjDptSwLQBKJt2oBMVZBtCVSz5H2mNcgo2+wzViCbUazPP/98DVEz9UGmGUgQm/NfG8hmXUbfJsDtPF/mh80PdmX/LG2e2dafbM9UCq3da2+mz77gDDDAAAMMMMAAAwwwwAADDDDAAAMMTG0D0yKQTZiaUakZXdqWhJ27du2qo08b0oSqe/fuLfPmzav7ZZRrRr5me9rIfLI5LvPFttGv7dhsP3XqVN2eoDUjXrMu2xOgrl69um5LG629tJ320qeM2M3UCe2Ytk8C42zPfjt37qwjdds5vU7tL5f74/4wwAADDDDAAAMMMMAAAwwwwAADDFxrYFoEsu2iMzVA5zLaSNOsyxyybb92bF6zLeszhUDn+vY+YWq25/jOYDXb2w92dZ6z7d/OlUC4tdVe23HZp/PYtt2rLzUDDDDAAAMMMMAAAwwwwAADDDDAAAP9Y2BaBbJg9g9M98q9YoABBhhggAEGGGCAAQYYYIABBhgYRAMC2Q/BHkTYrolrBhhggAEGGGCAAQYYYIABBhhggIGpaEAgK5D9j2kSpiJUffIHlAEGGGCAAQYYYIABBhhggAEGGGBgEAwIZAWyAlkGGGCAAQYYYIABBhhggAEGGGCAAQYY6JEBgWyPCj0I6b1r8BSKAQYYYIABBhhggAEGGGCAAQYYYICBv2ZAICuQ9fSDAQYYYIABBhhggAEGGGCAAQYYYIABBnpkYFoEsufPny8XLlwoeW1L+/xnE/3WVjuutdc+e/1rTwjUT/0YYIABBhhggAEGGGCAAQYYYIABBgbZwLQIZA8dOlR27txZdu3aNbLk8+HDh8ulS5fGnf4nfH377bfLjh07ytmzZ8upU6dqe3v27Bl3G4OMybX5Y8kAAwwwwAADDDDAAAMMMMAAAwwwwMDYBgY+kE2I+uSTT5ZZs2aV2bNnjyz5fN9995Vt27bV0bPjgXLx4sVy9913l5kzZ5Zjx47VkHfGjBnlrrvuqiNvx9OGfcYGqT7qwwADDDDAAAMMMMAAAwwwwAADDDAwyAamRSC7fv36cuedd5bbbrutBrMtnL3jjjvKvHnz6kjZ8dzkBLKLFi0qt99+ezl+/Hg5efJk2b59ew1mx3O8ffwxYYABBhhggAEGGGCAAQYYYIABBhhgYHobmDaBbMLYzZs3l0xfcPDgwTrVQMLYuXPnlueee+53Uw4keB0aGqrL5cuXR7ZdG8jm85UrV8rw8HAdZduOyajczi9W2mj7tPWZKqHtf+20CW3/zn60fdvxec1x17bbud376f3ldv/dfwYYYIABBhhggAEGGGCAAQYYYGDqGZhWgWzmf20/5pXQ9M0336yjXZcvXz4y5UBCzpdffrksWLCgjoZ94oknRrZdG8ju3bu37rNy5cqSeWQzejbTIGTkbMP+wQcflGyfP3/+yPQI6cO6devKwoUL63k2btw4Mpdttq1Zs6ZOjZD+LVmyZGS/FStWjLSb9jPyt7Pddk6vU++L5p64JwwwwAADDDDAAAMMMMAAAwwwwAADMTCZ//3XZDY2WlufffbZ7wLJ8SBO8JrgMiNkWyDbjkv4meA1206fPl0SuD711FMlUxlkXtgsef/QQw/VwPTaQDbtZYTtsmXLyrlz52ogO2fOnLJv374a4ubcmWs269JO9kkbq1at+o9zZJ7bhMHp0yOPPFKnWEjbWRLorl69uobHR48eHQmIH3jggdr2iRMnRta1a/PqC84AAwwwwAADDDDAAAMMMMAAAwwwwMDUMzBa7jnRdX0ZyCbUTCCbUa0JOzPiNKNcE54mIE14mjljMwI2nzvnkO0MZLMto17T1gsvvFCD1YSvmzZtqusSqGYqghyTgPbxxx+v7Z09e7bce++9Nfw9cuTISCCbAPf++++v0xqk7Yzazbq1a9fWUPe9996rn7PPtVMk+KJNvS+ae+KeMMAAAwwwwAADDDDAAAMMMMAAAwzEwGT+19eBbOaWff311+vI1ISn+/fvL5mS4Pnnn6/r8jpWIJuRrRkNm9A0I2YTkiaQ/fvf/14D2LSVdZkCIaNen3322dp+zpMRsRmNmx8IayNkE+xu27atfs6NSv8ymre1/dZbb5Vbb731d/v4UvtSM8AAAwwwwAADDDDAAAMMMMAAAwwwMLUNTOtANoFpRqfOnj27Tlnwyiuv1LA0I2JnzJhRl4SeCUcT0mb/Pxohm7A1S6Y3yP6ZtiCjWBO0Ll26tJw6daqOun3sscfqOXLOdo5Zs2bVUbiZS7YzkO2cYuHMmTM1jE0omykKMhr3zjvvrCGwL9nU/pK5P+4PAwwwwAADDDDAAAMMMMAAAwwwwEAzMG0D2YSn77//fh3RmmkK8j6BbELOhK8ZLbtly5aydevW+uNfu3fvvm4gm6K++uqrdUTsc889V4/NaNjMS5spELK0QDbr0n6WjIzND3gdPHjwd4FszpmANu2mv5kLN/3L6NhMq5AlQW27mV59sRlggAEGGGCAAQYYYIABBhhggAEGGJjaBqZNIJsRqZke4MqVK2V4eLiGq48++mgNZBOSJvBMOJrAM+sz32tGxCaYzTyyCWbHmrIgxwd75oFduHBhWb58eQ12E8gmbG3b8+NdWZc5YdN+1ie8TQicUbWdI2SvDWTfeeedOvr24YcfriNvMw9tQl5fsqn9JXN/3B8GGGCAAQYYYIABBhhggAEGGGCAgWZg2gSymds10w1k+oC2ZDqBLAlbU5AEtvPmzauB6vHjx2tYmikNMgVBgtbrTVmQNj744IMaxqbdu+++u7afddmW8LXNU5t2s+7dd9+t58u++WGxPwpks2+W1mZC3ddee20k6G3bvfpyM8AAAwwwwAADDDDAAAMMMMAAAwwwMHUNTJtANiNfE2J2LlmXf/bfgCYMfeCBB+oo2RbWzpkzpzz99NM1jB1PIJs2Nm3aVKctyLEvvfRSPbbzHIsXL/7dOTJnbaZLSPtjBbLZnh8FS7ic6zh8+PBI31v7Xqful829cW8YYIABBhhggAEGGGCAAQYYYIABBqZFIJspATKNQEbItiXzxm7evLlOTdD5RchUBZlOID+elX2feeaZkVGoCUszsjWjaPPDWnv37q37rFixYmSftJX5aHNs9jt06NDvtmV7gtX8KFf6lPNkhG7WZVvOsWbNmjoSds+ePfVz619G2GYUbwLZHJd92zavvswMMMAAAwwwwAADDDDAAAMMMMAAAwxMfQMDH8gGYeZ+HRoa+t3S5pEdDWnC0bZ/ju3cJ+tzbMLRBKJtv8598r5zv2u35XNnn1oY2/ZLKJxzdAauOV/2yw+AZURtfhTs2r61471O/S+ee+QeMcAAAwwwwAADDDDAAAMMMMAAA9PTwLQIZAcB99GjR+uPgy1ZsqQGsvmBr4S0g3BtrmF6/vFx3913BhhggAEGGGCAAQYYYIABBhiYjgYEsv//x7Km+s3fsmVLmTFjRpk9e3ZZu3ZtOXfunDC2T+7dVLelf/7nxwADDDDAAAMMMMAAAwwwwAADDPTOgEC2T0K9kydPll27dtXl9OnTwtg+uW/+mPXuj5laqzUDDDDAAAMMMMAAAwwwwAADDPSDAYFsHwV7maLANAX+sPTDHxZ95JQBBhhggAEGGGCAAQYYYIABBhgY3YBAto8CWYhHR6wu6sIAAwwwwAADDDDAAAMMMMAAAwww0C8GBLICWdMfMMAAAwwwwAADDDDAAAMMMMAAAwwwwECPDAhke1Tofkno9dPTJAYYYIABBhhggAEGGGCAAQYYYIABBrpnQCArkPX0gwEGGGCAAQYYYIABBhhggAEGGGCAAQZ6ZEAg26NCe6rQvacKaqu2DDDAAAMMMMAAAwwwwAADDDDAAAP9YkAgK5D19IMBBhhggAEGGGCAAQYYYIABBhhggAEGemRAINujQvdLQq+fniYxwAADDDDAAAMMMMAAAwwwwAADDDDQPQMCWYGspx8MMMAAAwwwwAADDDDAAAMMMMAAAwww0CMDAtkeFdpThe49VVBbtWWAAQYYYIABBhhggAEGGGCAAQYY6BcDAlmBrKcfDDDAAAMMMMAAAwwwwAADDDDAAAMMMNAjAwLZHhW6XxJ6/fQ0iQEGGGCAAQYYYIABBhhggAEGGGCAge4ZEMgKZD39YIABBhhggAEGGGCAAQYYYIABBhhggIEeGRDI9qjQnip076mC2qotAwwwwAADDDDAAAMMMMAAAwwwwEC/GBDICmQ9/WCAAQYYYIABBhhggAEGGGCAAQYYYICBHhkQyPao0P2S0Ounp0kMMMAAAwwwwAADDDDAAAMMMMAAAwx0z4BAViDr6QcDDDDAAAMMMMAAAwwwwAADDDDAAAMM9MiAQLZHhfZUoXtPFdRWbRlggAEGGGCAAQYYYIABBhhggAEG+sWAQFYg6+kHAwwwwAADDDDAAAMMMMAAAwwwwAADDPTIQF8Fsp9++ikYPYLRL08U9NPTLwYYYIABBhhggAEGGGCAAQYYYICBfjLQV4Hs559/LpAVyDLAAAMMMMAAAwwwwAADDDDAAAMMMMBAXxo4f/78ZOax5b8mtbVRGvv666/7stD9lNDrqydKDDDAAAMMMMAAAwwwwAADDDDAAAMMTL6BhLEXLlwYJfWc+KquB7LffvttSceBmHwQaqqmDDDAAAMMMMAAAwwwwAADDDDAAAMMdM9Awtjh4eGJp6+jHNn1QPaf//xnTZHB6B4MtVVbBhhggAEGGGCAAQYYYIABBhhggAEGJt/A5cuXyxdffDFKrDrxVV0PZNO1dDxpMhSTj0JN1ZQBBhhggAEGGGCAAQYYYIABBhhggIHuGLh06VL58ccfJ56+jnJkTwLZdDqhLBjdgaGu6soAAwwwwAADDDDAAAMMMMAAAwwwwMDkG7hy5Ur57bffRolVJ76qJ4FsuvfRRx+VJMpgTD4MNVVTBhhggAEGGGCAAQYYYIABBhhggAEGJs9AfhMrA0y///77iSevf3BkzwLZn376qV7E1atXhbIfTh4OXzS1ZIABBhhggAEGGGCAAQYYYIABBhhgYPIMtDD2008//YNI9a+t7lkgm27mB74yUvbjjz8uFy9eFMwKZhlggAEGGGCAAQYYYIABBhhggAEGGGBgShhIEDs0NFSGh4fL119/XX799de/lrz+wdE9DWTTh3//+9/1gjJ9wVdffVU+//xzixowwAADDDDAAAMMMMAAAwwwwAADDDDAwA01kDA2g0l/+OGHSZ83tjOb7Xkgm5NnItwkzL/88kt9zXuLGjDAAAMMMMAAAwwwwAADDDDAAAMMMMDAjTQw2T/g1RnEtvc3JJBtJ/eqAiqgAiqgAiqgAiqgAiqgAiqgAiqgAiqgAiqgAtOpAgLZ6XS3XasKqIAKqIAKqIAKqIAKqIAKqIAKqIAKqIAKqMANrYBA9oaW38lVQAVUQAVUQAVUQAVUQAVUQAVUQAVUQAVUQAWmUwUEstPpbrtWFVABFVABFVABFVABFVABFVABFVABFVABFVCBG1oBgewNLb+Tq4AKqIAKqIAKqIAKqIAKqIAKqIAKqIAKqIAKTKcKCGSn0912rSqgAiqgAiqgAiqgAiqgAiqgAiqgAiqgAiqgAje0AgLZG1p+J1cBFVABFVABFVABFVABFVABFVABFVABFVABFZhOFRDITqe77VpVQAVUQAVUQAVUQAVUQAVUQAVUQAVUQAVUQAVuaAUEsje0/E6uAiqgAiqgAiqgAiqgAiqgAiqgAiqgAiqgAiownSogkJ1Od9u1qoAKqIAKqIAKqIAKqIAKqIAKqIAKqIAKqIAK3NAKCGRvaPmdXAVUQAVUQAVUQAVUQAVUQAVUQAVUQAVUQAVUYDpVoCeB7M8//1y+//778tVXX1nUgAEGGGCAAQYYYIABBhhggAEGGGCAAQamrIHvvvuu/Pjjj13LiLseyKbzw8PD5eLFi/X1ypUrxaIGDDDAAAMMMMAAAwwwwAADDDDAAAMMMDDVDFy9erV8+OGH5dKlS+WLL77oSijb1UD2119/LUNDQ+XChQvl/Pnz9WJyQRY1YIABBhhggAEGGGCAAQYYYIABBhhggIGpaCA5ZvLM9O3bb7+d9FC2q4HsN998UwPZqVhYffKFZ4ABBhhggAEGGGCAAQYYYIABBhhggIGxDORf/v/yyy+TGsp2NZD96KOP6lQFY12UbdAzwAADDDDAAAMMMMAAAwwwwAADDDDAwFQ18K9//at/AtnMG2uqAl+mqfpl0i82GWCAAQYYYIABBhhggAEGGGCAAQbGMpA5bn/++ef+CWTbXAtjXZRt0DPAAAMMMMAAAwwwwAADDDDAAAMMMMDAVDSQGQD6KpCdikXUJ19uBhhggAEGGGCAAQYYYIABBhhggAEGGBiPAYHsh6CMB4p9OGGAAQYYYIABBhhggAEGGGCAAQYYYOCvGxDICmSLL9Jf/yKpoRoywAADDDDAAAMMMMAAAwwwwAADDIzHgEBWICuQZYABBhhggAEGGGCAAQYYYIABBhhggIEeGRDI9qjQ40nH7eMpCgMMMMAAAwwwwAADDDDAAAMMMMAAA4NtQCArkPX0gwEGGGCAAQYYYIABBhhggAEGGGCAAQZ6ZEAg26NCe7Ix2E823F/3lwEGGGCAAQYYYIABBhhggAEGGGBgPAYEsgJZTz8YYIABBhhggAEGGGCAAQYYYIABBhhgoEcGBLI9KvR40nH7eIrCAAMMMMAAAwwwwAADDDDAAAMMMMDAYBsQyApkPf1ggAEGGGCAAQYYYIABBhhggAEGGGCAgR4ZEMj2qNCebAz2kw331/1lgAEGGGCAAQYYYIABBhhggAEGGBiPAYGsQNbTDwYYYIABBhhggAEGGGCAAQYYYIABBhjokQGBbI8KPZ503D6eojDAAAMMMMAAAwwwwAADDDDAAAMMMDDYBgSyAllPPxhggAEGGGCAAQYYYIABBhhggAEGGGCgRwYEsj0qtCcbg/1kw/11fxlggAEGGGCAAQYYYIABBhhggAEGxmNAICuQ9fSDAQYYYIABBhhggAEGGGCAAQYYYIABBnpkQCDbo0KPJx23j6coDDDAAAMMMMAAAwwwwAADDDDAAAMMDLYBgaxA1tMPBhhggAEGGGCAAQYYYIABBhhggAEGGOiRgWkRyF68eLFk+bNPF9pxeT1//vyfPv7Pnm8y9r9w4UK91rxORnvaGOwnMu6v+8sAAwwwwAADDDDAAAMMMMAAAwz01sDAB7LvvvtuueOOO+ryZ3CdO3eu3HXXXWXOnDn12O3bt0/ZgDN9zbUlNH7qqadqn59++ukp298/cx+m+74ffPCB+9ijp1PT3Zrr7+3/fNVbvRlggAEGGGCAAQYYYICB6WtgWgSyCVbnzp077mAro0sff/zxGsQuWbKkLF++vBw8eHDcx/fqC5UA9syZM2XLli3l1KlTNZDdsGFDue+++8rGjRunXH97VZdBOc+JEyfKunXryqVLl9xLoSwDDDDAAAMMMMAAAwwwwAADDDAwIAamXSCbEDMBV5vCoL1vnxPmZZ977723hrh79uwpKVKbAiDb2lQGOTafOwPAtq1NHZDP7X1es+S4LHmfY9sxWdfZVt63Y9s+7Zi2bf369XUk79mzZ+u+Q0NDtb957Wwrx6f91k7ntlaTtN3eZ7/Oc3Xun/etvfa+s93rtdH27WyjtZ9zttrkfdvn2jrnc2c7ed/aaK+tH2mvc//Otto+o52nHZN+tH61vnVed9a1c7bX8bTb+tx5HTk+5zp69Gi5++67y5NPPlmuXLnyH+2383idvk/T3Hv3ngEGGGCAAQYYYIABBhhggIH+NDCtAtmEZBl1mNGjb731Vsk/9c/7l19+ubzxxhs14Avkbdu2lUWLFtWgMyMUN23aVAOxHP/+++/Xz6+88ko99vTp0yPH5Z+Xv/7667W9AwcOlOyzefPm8s4779R1e/fuLVlyvpw3o24TnLZjsq6FdOlH3u/atavun7ZyXD4nsEs/su72228v8+fPLy+++GLdlgA5++W1fSlzjlxv1mfJ9AvtPLmmw4cPl4ysffvtt+uI2+yTtvM521s77TXrUq8ck3UZoZtj8pptGbXb6pr+draR87ZryTFpI9eTfbKkPll36NCh0mqY/U6ePDnSj+yXz2mntfXqq6/WILf1MSFpQs20lb5kBHGuO/tnGovsl/Pm/mV7ayfBdutv+pD1qcO+ffvqNWbf9Cs1TQ3St6xLW+3co7WbmrR205e0m+NjMG1kyTVcvny5tv/II4/Ue3v//fdXQzm+te+1P//Yum/uGwMMMMAAAwwwwAADDDDAAAMMxMC0CmQTlCVcmzVrVlm4cGFZtWpVufnmm8vs2bNr+JrQLUW555576nQFmebg1ltvrcFYjn3vvffKQw89VPefMWNGmTlzZv2c8DNhW0KzZcuW1f3TRvbJdAcJdBOcZtuCBQvq+vQh29auXVvbS1vpR0a8tnAvwV+C4bSTJX3J5wS86UvaSh/vvPPOun316tX1+Jwr7bQvecK+dt60k5GXL7300shI1K1bt5ZbbrmlLF26tDzwwAO1JrfddltZvHhxDbBbO+0115oRxLmGxx57rL6mb+lLpnpIjVpdU+djx47VvuS4zHGb60w/cs1pI6NAEzDnup955pl6nalNzp/90pe///3vI21k3/QzfW7tZK7f1DkBZ86Te7lixYraVvqSPmX6icwn3O5zgtFHH3209iPt5BrWrFlT72OuNWF6apm65DqyT/qbKSFy39Kvdt9yXe2+Xa/dBL3pb+5DDLZ2s+7NN9+s4XquLVNt5Pyp1/Hjx0fuZ7sPXv0RZ4ABBhhggAEGGGCAAQYYYIABBvrPwLQLZBOeJvhKmPb888+XI0eOlIxCTFCXMDCIsy7haQKx1157rY7WTMiX8CzHZb+Eagk1E4Ym7EtImEA2YV2CyQcffLCOdMyI3AR7WZdjMyoygWAC2xw7b968Oio0QVxGuuZzRn8m3EvAmrBu//79NdTMCMqEc/nBrmzPaNK0m7AwQXPOlW1Z164l52pz6Gb/jMpN0JnrzTVkJGlGBLfgL+fI9afNrMuo1xY0ti94apGwM/3PuTLCNqNEs39qm3okhM1rrjlBadpI7RNoZn36kfMneE07CZmzT+5J+pZ1GdWbUDrnyHWnDhlBmoD5pptuGrk3GYWbfdJW7kFC2QTFaSM1zHmeffbZ2m5C0LSTc6WdtJtrzmjaJ554ova3XXNGLqfdVofUMvc37eY+5XrSx9y31Dgjb9NuRr+m3bx2thsH2Z56Zf/UKsFuPifIzrliLO288MIL9bwZKZs2/LhX//1xbd8Xr+4dAwwwwAADDDDAAAMMMMAAAwx0Gpi2gWxGPbZRmTt27BgJv1KcBHoJ3hLetX+2n2AwIVyC1ASmCSXzz9szYjWBXALGFsi2MDH7ZGmBbEZ55pi0n5GZCeDaSNb80/mMOs05cq70I+1l/4SQCTUzyjVhZUK8/NP/jMRMGwlYc3zOlfayLoFswr+M+EwomtA1n7NPAseEgQkBWyCbfRJMZ5+0nT4nVEx7bXqDBidtJJBt7WZ7QsT0LeFl+pJ2Ez6njdbfhIq5prSTf/LfQu+EkwmLc+4EsmkjfUu7WZfRpzlXwvGsS03STt6nBrkHuebcs4wcbrVMu7kv6W9GmGaEbAtk04fUM7XL9tQ49yXtZPRt+t8C2Vxr63fqmX1yTWkj50sQfG276VNnu+lLa7cFsgm906/sl5A47eYexGXuUa45IXH61mrv1R9wBhhggAEGGGCAAQYYYIABBhhgoL8NTNtANqM0E8Al8Nu9e3cNATM6MaA7A9lsy7qEtgndclwCtKxLIJjALAFiwrsEhW0EZUZlZr8sLZDNqM2Ekmk/7xPAZXRm2koIt3LlynqOjBbNugS/CY4T8GbfhHqdgWy2Z31CxQSTOVdnIJvPCfgS7KVvaTNLQsqEyDku501Y2xmcpiYtTE0Ymutsx+Y17bZANuFi9s/507eEnq2uuY6MiG2BbPZLndKfXFOup11XZyCb7RldmvPmXAmXsy6hdOtL5vbN+TrbaYFsQs6EnbnGHJ8+5zoTiOcepl+tvzl/2uhccg05pgWyGWXb7lvud47J6NrWboLWFsiOp90WyKa/LUjPPUm7uV+5V52BbMLhnMuiBgwwwAADDDDAAAMMMMAAAwwwwED/GxDIjjOQbaHqtYFsfkwrYeFkB7IJEhMgJijMSNL2z+M7g9PrBbL5giaUTGDcGchmOoGM4Ox1IJsf1crI3PQpUzqkf7nGBLPjDWQzsjahc64p15D3maohYWYLZBOG5/N4AtkEqalvgu8seZ+6JID9K4HsWO0KZPv/D6f/+bmHDDDAAAMMMMAAAwwwwAADDDAwUQMC2XEGshkpm5AtoyFbsTNaM3N8JmRM2DhZI2QzZUFGeSZ8zTQGw8PD9Z/4JyDsDGQzujJhZgLENtKyc4RsRqQm8Exg3KZZSN/zz+Pb9AsZzdqLEbLpS5snNVMPJFjNNAAZEfpnAtn0N0FrlkyTkH/O30aXtkA2c67m+rIkWM01595kVG/uYUbIZqqBjLDNFBT5EqTGuZ9pK4F1G82bYPfPjJDtbPfq1aujtpvAONc81gjZjFBO6JwRuUbI+gPf/uZ4ZYEBBhhggAEGGGCAAQYYYICB/jcgkB1nIJuANCFg/il8QrsEgRmZ2dYlxEvAmJAto1r/ypQFCWTzw1oJX9s/n08olykVEtLln+snPEzYmHlQrDSr5wAAIABJREFU06cEgdnn2kA2c7ImkM2PfeWY9Ds/cJW2sy2fexHIZsRvmzc3P4aW86ZG6f+fCWQz9UBC1YStOT7tZHqDzhGyLejNuvzoVvZJTXOvcmwC6fQno2FTm4w+TniawDs/FpZ+plYTGSGbIPd67Y5nhGx+qCxBf6a2uHLlysjUC/7o9v8fXffQPWSAAQYYYIABBhhggAEGGGBgehsQyI4zkE3QlrlMb7nlljrqNO8ffvjhkWAzIzcnK5DNCM6Erfkn9G2UZOZhvfXWW+uozozYTPiaUDEhYwLNjKTMKN0Erwki0798uRPsJoTMaNDMB5v12T8jQzOqNsFjLwLZnCfz5SZkzHWln5kzN8Fw+rNz5846KrUFyH80h2yuO6OSE6Rm+oi0kxrk+hKE5ppy3Qmmc66MMM4151w5T2cgm/7k/KnFc889V/uV2iVwT20nEsjmuMx1m3bTn9HavV4gG0cJidP/jH5OTRK4+2M9vf9Yu//uPwMMMMAAAwwwwAADDDDAAAODYWBaBLIJx7IkVH377bfLzJkz6z9fbz8+lTBwxowZI9MRZH2CsIR+GakY7AnaEorlx5YSkiaYzTEJM1tYliAtI1oTnLZQL8cl+MuPW2WEa4LWtJ/36dPGjRtr+xn5mWAwbbcRnJkmIaNtc64Ehel7wsf0q/U9I0CzPcvy5cvrD2jlXBlFm35nvwSAaTv9zX4JKfPP+tO31CT/PD4jQzOlQILTLJkzN+sS9OZz5xc+xyVsTHu5zrSRKRHSdkautr7lOv72t7/VUZ5pI9eYMDn1z7F5n0A1/U1omnby+eabby4bNmyo5826XEvW5Ye0EshmqoJcT86XYxOAZuqDfM5I2HavEty2c23dunVkyoL0K9eTaQxyb7JPlty33O/0P9sztULuUea7bfctfc66jPLNPrmm1D33JPPgjqfd1CxtdE410X4ALWF1HGXJNeX6UqsE67mutG9RAwYYYIABBhhggAEGGGCAAQYYYKB/DQx8IJtwLQFelkBNgJapBk6dOjUSbI22LgFjjsm2TuCd7aWdFt5ln7xvxyXAa8cl+EtbbfRm1ud91iV4a/ulT1nXju1sL+0mkMtrztuOyT75nONyfMLhvG8hcfbLcTlf2y/vO8O99C/bOvvX1nW2086Z15wrx3T2NZ/Tv7ZftnW2m3PmerMuS9632rTz5LVta+1cu65dT66z1atdX+tPpino7GfuY+b/zQjZffv2/UcfW1vtnHltfeusS95n37HuW45t1z5au9mW9alV8zPaunau1KNdV2f/vO/fP7zunXvHAAMMMMAAAwwwwAADDDDAwPQ1MPCBLNzTD3fC0jZFQaY+SICbOX4z127mrG3hLxvTz4Z77p4zwAADDDDAAAMMMMAAAwwwwMCNNiCQ9U/AR0aL3miMk3n+9uNmmYc10wlkKohM+5ApETLtwWSeS1v+kDPAAAMMMMAAAwwwwAADDDDAAAMMjNeAQFYgO5Dh5PDwcHn00UfrSNmMll2xYkWdF7dNZTDeL4j9/DFlgAEGGGCAAQYYYIABBhhggAEGGJhMAwJZgexABrL5kgwNDZUEs20xMtYfz8n846ktnhhggAEGGGCAAQYYYIABBhhgYCIGBLIC2YENZCfyhXCMP6QMMMAAAwwwwAADDDDAAAMMMMAAA900IJAVyApkGWCAAQYYYIABBhhggAEGGGCAAQYYYKBHBgSyPSp0N1N1bXtqwwADDDDAAAMMMMAAAwwwwAADDDDAQH8YEMgKZD39YIABBhhggAEGGGCAAQYYYIABBhhggIEeGRDI9qjQnlD0xxMK98l9YoABBhhggAEGGGCAAQYYYIABBhjopgGBrEDW0w8GGGCAAQYYYIABBhhggAEGGGCAAQYY6JEBgWyPCt3NVF3bntowwAADDDDAAAMMMMAAAwwwwAADDDDQHwYEsgJZTz8YYIABBhhggAEGGGCAAQYYYIABBhhgoEcGBLI9KrQnFP3xhMJ9cp8YYIABBhhggAEGGGCAAQYYYIABBrppQCArkPX0gwEGGGCAAQYYYIABBhhggAEGGGCAAQZ6ZEAg26NCdzNV17anNgwwwAADDDDAAAMMMMAAAwwwwAADDPSHAYGsQNbTDwYYYIABBhhggAEGGGCAAQYYYIABBhjokQGBbI8K7QlFfzyhcJ/cJwYYYIABBhhggAEGGGCAAQYYYICBbhoQyApkPf1ggAEGGGCAAQYYYIABBhhggAEGGGCAgR4ZEMj2qNDdTNW17akNAwwwwAADDDDAAAMMMMAAAwwwwAAD/WGg7wLZ8+fPS+uFyAwwwAADDDDAAAMMMMAAAwwwwAADDDDQlwb6LpCV9PdH0u8+uU8MMMAAAwwwwAADDDDAAAMMMMAAAwz8p4GPP/64/Pzzz2Uy//uvyWzs2rauXLlSLly40JfpN4D/CVBN1IQBBhhggAEGGGCAAQYYYIABBhhgYLoZ+Ne//nVt7PmXPnc1kP3iiy/K5cuXBbKGpDPAAAMMMMAAAwwwwAADDDDAAAMMMMBA3xm4dOlS+fe///2XAthrD+5qIJv0OPPImkvWk5Pp9uTE9TLPAAMMMMAAAwwwwAADDDDAAAMM9LeBZJqffvrptXnqX/7c1UD2t99+K19//XW5ePFinbogo2UtasAAAwwwwAADDDDAAAMMMMAAAwwwwAADU9lAwtihoaFJHx2bNLergWyLi7///vuS6Qs+++wzixowwAADDDDAAAMMMMAAAwwwwAADDDDAwJQ1kFGxGWT666+/tnhzUl97EshOao81pgIqoAIqoAIqoAIqoAIqoAIqoAIqoAIqoAIqoAJ9WgGBbJ/eON1WARVQARVQARVQARVQARVQARVQARVQARVQARXovwoIZPvvnumxCqiACqiACqiACqiACqiACqiACqiACqiACqhAn1ZAINunN063VUAFVEAFVEAFVEAFVEAFVEAFVEAFVEAFVEAF+q8CAtn+u2d6rAIqoAIqoAIqoAIqoAIqoAIqoAIqoAIqoAIq0KcVEMj26Y3TbRVQARVQARVQARVQARVQARVQARVQARVQARVQgf6rgEC2/+6ZHquACqiACqiACqiACqiACqiACqiACqiACqiACvRpBQSyfXrjdFsFVEAFVEAFVEAFVEAFVEAFVEAFVEAFVEAFVKD/KiCQ7b97pscqoAIqoAIqoAIqoAIqoAIqoAIqoAIqoAIqoAJ9WgGBbJ/eON1WARVQARVQARVQARVQARVQARVQARVQARVQARXovwoIZPvvnumxCqiACqiACqiACqiACqiACqiACqiACqiACqhAn1ag54Hs//3f/5Uvv/yyXL58uS4XLlwoFjVggAEGGGCAAQYYYIABBhhggAEGGGCAgRtp4Pz58+Wjjz4q33zzTfnll1+6Fvf2LJD97bffyldffVW++OKLMjQ0VEPYDz/8sFjUgAEGGGCAAQYYYIABBhhggAEGGGCAAQamgoFLly6VK1eu1Ozy559/7koo27NA9vPPPy/Dw8MCWCE0AwwwwAADDDDAAAMMMMAAAwwwwAADDExpAxcvXiwZMfvjjz9Oeijbk0A20xRcvXp1Shd5KiTw+uBJEAMMMMAAAwwwwAADDDDAAAMMMMAAA1PDQALZDDDNv/yfzP96EshmqG9SZZimBib3wX1ggAEGGGCAAQYYYIABBhhggAEGGGDg+gYSyv7www+TmceWrgeyP/30U0kg6wZf/warkRoxwAADDDDAAAMMMMAAAwwwwAADDDAwdQzkt7Dym1iT+V/XA9n/+Z//qfMtgDR1ILkX7gUDDDDAAAMMMMAAAwwwwAADDDDAAAPXN5B/9Z8f+ZrM/7oeyH755ZdGx5qkmQEGGGCAAQYYYIABBhhggAEGGGCAAQb61kBfBbKfffZZ3xbaU4LrPyVQIzVigAEGGGCAAQYYYIABBhhggAEGGBh0AwJZTxOE3AwwwAADDDDAAAMMMMAAAwwwwAADDDDQIwMC2R4VetCTfdfn6RUDDDDAAAMMMMAAAwwwwAADDDDAAAPXNyCQFch6+sEAAwwwwAADDDDAAAMMMMAAAwwwwAADPTIgkO1RoT0duP7TATVSIwYYYIABBhhggAEGGGCAAQYYYICBQTcgkBXIevrBAAMMMMAAAwwwwAADDDDAAAMMMMAAAz0yIJDtUaEHPdl3fZ5eMcAAAwwwwAADDDDAAAMMMMAAAwwwcH0DAlmBrKcfDDDAAAMMMMAAAwwwwAADDDDAAAMMMNAjAwLZHhXa04HrPx1QIzVigAEGGGCAAQYYYIABBhhggAEGGBh0AwJZgaynHwwwwAADDDDAAAMMMMAAAwwwwAADDDDQIwMC2R4VetCTfdfn6RUDDDDAAAMMMMAAAwwwwAADDDDAAAPXNyCQFch6+sEAAwwwwAADDDDAAAMMMMAAAwwwwAADPTIgkO1RoT0duP7TATVSIwYYYIABBhhggAEGGGCAAQYYYICBQTcgkBXIevrBAAMMMMAAAwwwwAADDDDAAAMMMMAAAz0yIJDtUaEHPdl3fZ5eMcAAAwwwwAADDDDAAAMMMMAAAwwwcH0DAlmBrKcfDDDAAAMMMMAAAwwwwAADDDDAAAMMMNAjAwLZHhXa04HrPx1QIzVigAEGGGCAAQYYYIABBhhggAEGGBh0AwJZgaynHwwwwAADDDDAAAMMMMAAAwwwwAADDDDQIwMC2R4VetCTfdfn6RUDDDDAAAMMMMAAAwwwwAADDDDAAAPXNyCQFch6+sEAAwwwwAADDDDAAAMMMMAAAwwwwAADPTIgkO1RoT0duP7TATVSIwYYYIABBhhggAEGGGCAAQYYYICBQTcgkBXIevrBAAMMMMAAAwwwwAADDDDAAAMMMMAAAz0yIJDtUaEHPdl3fZ5eMcAAAwwwwAADDDDAAAMMMMAAAwwwcH0DAlmBrKcfDDDAAAMMMMAAAwwwwAADDDDAAAMMMNAjAwLZHhXa04HrPx1QIzVigAEGGGCAAQYYYIABBhhggAEGGBh0AwJZgaynHwwwwAADDDDAAAMMMMAAAwwwwAADDDDQIwMC2R4VetCTfdfn6RUDDDDAAAMMMMAAAwwwwAADDDDAAAPXNyCQFch6+sEAAwwwwAADDDDAAAMMMMAAAwwwwAADPTIgkO1RoT0duP7TATVSIwYYYIABBhhggAEGGGCAAQYYYICBQTcgkBXIevrBAAMMMMAAAwwwwAADDDDAAAMMMMAAAz0yIJDtUaEHPdl3fZ5eMcAAAwwwwAADDDDAAAMMMMAAAwwwcH0DAlmBrKcfDDDAAAMMMMAAAwwwwAADDDDAAAMMMNAjAwLZHhXa04HrPx1QIzVigAEGGGCAAQYYYIABBhhggAEGGBh0AwJZgaynHwwwwAADDDDAAAMMMMAAAwwwwAADDDDQIwMDH8heuHChDA8Pl6Ghof9Yzp8/3zVo7byXLl3q2jkG/WmB6/NEjAEGGGCAAQYYYIABBhhggAEGGGBg0AwMdCCbUHTHjh1l3rx5ZdGiRb9bli5dWk6cOFG6EcqmzTfffLPcfffdZe3ataUboWyubdAwuh5/YBlggAEGGGCAAQYYYIABBhhggAEGBt3AwAey27dvL7fffnuZO3fufyxZf+zYsUkPZRPIbtu2rdx2223lscce60og+/TTT3el3UEH7/r8UWeAAQYYYIABBhhggAEGGGCAAQYYuJEGpk0gO3/+/LJs2bKSkbFZMmr2jjvuKOvWrSsXL16soWwbLZvX9r7dnLauvbb1na9tW0avjhbItu2jHdO5Lu/bvnlt2/L+9OnTtf8Jei9fvvy7baMd04716g8NAwwwwAADDDDAAAMMMMAAAwwwwAADN97AtAhkZ8+eXYPXq1ev1vlkM6fshg0b6ojZe++9tyRAzUjZPXv2lFOnTpX9+/fX92fOnKnBaALbgwcPlr1799Yl+147ZcAHH3wwsv348eN1yoI2QjbBaYLUtJ9jA7+Fq1l3+PDh3wWr2bedK31pQevJkyfLc889V3I9Dz74YDlw4EA5e/Zs3X7kyJGRY3Lsu+++W9f7kt34L5l74B4wwAADDDDAAAMMMMAAAwwwwAADDDQD0yaQzVyuCWITjmbJCNbM8XrffffVz+vXry8zZswojz76aJk1a1aZOXPmyHQGW7durSNqsz3L/fffX3bv3l1H1qaQCWM3btxYg9Kbb7653HPPPeWpp56qUyVkJGt+UCxz2WZb+pGANYFu5pnNulWrVtXPWZ8g9fHHH6/nybkyrcKrr75a+/jyyy/Xft11111lzpw5tZ9Hjx6tYXHO2fp3yy231Dbfe++9kaC33XCvvvwMMMAAAwwwwAADDDDAAAMMMMAAAwzcOAPTIpDNSNWMhH322WdL5l595plnamiaKQseeeSRGphmW0LOjD597bXXSkLYc+fOlZ07d9apDRYuXFjXJxxNIJrPCTwTomakatrK8Vu2bCkJTtNO1rVAdteuXXVO2Zy/BbIJadO3BLAJaBPspj9Zl5GwmzdvroFxQtl33nmnJHx98skn63kSCidUzgjZlStX1mPS79dff70GxgmUc005ly/YjfuCqb3aM8AAAwwwwAADDDDAAAMMMMAAAwx0GpgWgWwCzTvvvLMGmQlNsyQszUjShJwZMZvwMkFoAtF8zjQFCWQzejX7J6Btc80+8cQT9fhXXnmlrsvnBLDPP//8yLEJTnPePxPIZlqEhL0JWzNdQs7Xwt2EtvmcUbUtxM2I3wSuGembdYcOHSqffPJJDYozbUE+d95s7335GWCAAQYYYIABBhhggAEGGGCAAQYYuLEGpk0gmwA2oWVbFi9ePBJYXrp0qQayCVUTsrb5YTP6NFMBJMzN6NWGNeFsgtOHH364rlu0aFENXzN3bBv9+sYbb9Rz/ZlA9q233qrtJhRu50ofMo1B5pVN250/FpbgOH3N6N9cX/qRHyxbsmRJHTmb62rteL2xXzT1V38GGGCAAQYYYIABBhhggAEGGGCAgRiYzP/+azIbG62tzz777E8FjAkrt2/fXkevZhRrAs2Mem1L+xJ0BrKZkqAFsglBE7wmkG375jWjTzMqNT+slc+ZviCjYdsPaeU82efPjpBNGDx37tw6SrfzfO39tYFsC1wzynfBggW1nzm+LZnCIMe047360jPAAAMMMMAAAwwwwAADDDDAAAMMMHBjDYyWe0503ZQOZDOFQP7J/2jg/iiQzejUZcuW/ccI2YxSbSNkE3g+9NBDdTTsiRMnRkbIZhRtRuNeO0J29erVI/tkRGz2aXPIjjZCNiNzEwy3+WoTMLd2WyCba0o/EggnmM1I2YSyed85sne0a7fuxn4B1V/9GWCAAQYYYIABBhhggAEGGGCAgellYKLh62jHDVwgm5G0mZYgc8gmCG0jZ9euXVunCNi4cWPpDHNfeuml+jnh6Lp16343Qvbtt9+uQeoDDzxQ20k4nB/4StstkM2PgyXoTQh88uTJul8b4btixYry/vvvl3379tVjEuwODQ2N/PBYm+bg6tWrdR7btJO2Eyr7Uk+vL7X77X4zwAADDDDAAAMMMMAAAwwwwAADU9fAaMHqRNcNXCAbuBkN2+ZnzbywW7ZsGQlNT506VUemJkjNiNQEoPnRrQS1+cGwHJcRspnrNfu2+WvTRqYTyFQHmQ6hBbIZzZrRtrNmzapz2ubcmRYhUx/kfYLed955p54noe2OHTtquxkRe+utt5YNGzaMnD/z4aathMq+gFP3C+jeuDcMMMAAAwwwwAADDDDAAAMMMMDA9DIw0fB1tOOmZCCbqQNuvvnmGoyONWXB+vXr634JU9tI2HwZMsJ006ZNZd68eXX7jBkzysqVK8v+/ftHpkBI6JnjErjmXPlhrTVr1pSZM2eWVatW1UA2bT777LN1Ptu0kR8Vy+fsk9Gt2Z4l0x5k9GvWZ7+0mZG3LVjN9AX33XdfDW2z/dChQyWB8PLly0eOyfrsc/jw4Rri+lJPry+1++1+M8AAAwwwwAADDDDAAAMMMMAAA1PXwGjB6kTXTblAts2rmpGkBw8e/MNwMvsdOXKkjjg9fvz47/bLtkxLkKkCdu7cWZfs0xnaBnimE9i1a1fdnrYSnOa8CUvTRuc+2S9haUbNXrtP9s36dq7du3ePHN++SDk2beTYzC2bvuScOab1Iftc28d2vNep+4V0b9wbBhhggAEGGGCAAQYYYIABBhhgYLANTDR8He24KRfIBm8CzgSTLRT9I9DX269z+x+11blPzjPaebNP5/JH+7T1o52rHZ992vW0dXltx7ZtXgf7S+z+ur8MMMAAAwwwwAADDDDAAAMMMMBA/xgYLVid6LopGcjC2D8Y3Sv3igEGGGCAAQYYYIABBhhggAEGGGBg0A1MNHwd7TiB7Ie+MIP+hXF9jDPAAAMMMMAAAwwwwAADDDDAAAMM/BUDowWrE10nkBXIjkyh8FdQOtYfNQYYYIABBhhggAEGGGCAAQYYYICBQTUw0fB1tOMEsgJZgSwDDDDAAAMMMMAAAwwwwAADDDDAAAMMjGFgtGB1ousEsmMUelATfdflaRUDDDDAAAMMMMAAAwwwwAADDDDAAAPjNzDR8HW04wSyAllPPxhggAEGGGCAAQYYYIABBhhggAEGGGBgDAOjBasTXSeQHaPQnhKM/ymBWqkVAwwwwAADDDDAAAMMMMAAAwwwwMCgGpho+DracQJZgaynHwwwwAADDDDAAAMMMMAAAwwwwAADDDAwhoHRgtWJrhPIjlHoQU30XZenVQwwwAADDDDAAAMMMMAAAwwwwAADDIzfwETD19GOE8gKZD39YIABBhhggAEGGGCAAQYYYIABBhhggIExDIwWrE50nUB2jEJ7SjD+pwRqpVYMMMAAAwwwwAADDDDAAAMMMMAAA4NqYKLh62jHCWQFsp5+MMAAAwwwwAADDDDAAAMMMMAAAwwwwMAYBkYLVie6TiA7RqEHNdF3XZ5WMcAAAwwwwAADDDDAAAMMMMAAAwwwMH4DEw1fRztOICuQ9fSDAQYYYIABBhhggAEGGGCAAQYYYIABBsYwMFqwOtF1AtkxCu0pwfifEqiVWjHAAAMMMMAAAwwwwAADDDDAAAMMDKqBiYavox0nkBXIevrBAAMMMMAAAwwwwAADDDDAAAMMMMAAA2MYGC1Yneg6gewYhR7URN91eVrFAAMMMMAAAwwwwAADDDDAAAMMMMDA+A1MNHwd7TiBrEDW0w8GGGCAAQYYYIABBhhggAEGGGCAAQYYGMPAaMHqRNcJZMcotKcE439KoFZqxQADDDDAAAMMMMAAAwwwwAADDDAwqAYmGr6OdpxAViDr6QcDDDDAAAMMMMAAAwwwwAADDDDAAAMMjGFgtGB1ousEsmMUelATfdflaRUDDDDAAAMMMMAAAwwwwAADDDDAAAPjNzDR8HW04wSyAllPPxhggAEGGGCAAQYYYIABBhhggAEGGGBgDAOjBasTXSeQHaPQnhKM/ymBWqkVAwwwwAADDDDAAAMMMMAAAwwwwMCgGpho+DracQJZgaynHwwwwAADDDDAAAMMMMAAAwwwwAADDDAwhoHRgtWJrhPIjlHoQU30XZenVQwwwAADDDDAAAMMMMAAAwwwwAADDIzfwETD19GOE8gKZD39YIABBhhggAEGGGCAAQYYYIABBhhggIExDIwWrE50nUB2jEJ7SjD+pwRqpVYMMMAAAwwwwAADDDDAAAMMMMAAA4NqYKLh62jHCWQFsp5+MMAAAwwwwAADDDDAAAMMMMAAAwwwwMAYBkYLVie6TiA7RqEHNdF3XZ5WMcAAAwwwwAADDDDAAAMMMMAAAwwwMH4DEw1fRztOICuQ9fSDAQYYYIABBhhggAEGGGCAAQYYYIABBsYwMFqwOtF1AtkxCu0pwfifEqiVWjHAAAMMMMAAAwwwwAADDDDAAAMMDKqBiYavox0nkBXIevrBAAMMMMAAAwwwwAADDDDAAAMMMMAAA2MYGC1Yneg6gewYhR7URN91eVrFAAMMMMAAAwwwwAADDDDAAAMMMMDA+A1MNHwd7TiBrEDW0w8GGGCAAQYYYIABBhhggAEGGGCAAQYY+AMDFy5cGC1XnfC6rgeyX331lZv5BzfTU4jxP4VQK7VigAEGGGCAAQYYYIABBhhggAEGGOi1gfPnz5eLFy9OOHwd7cCuB7L/+Mc/Sjre62I5ny8oAwwwwAADDDDAAAMMMMAAAwwwwAADDPwVAwljr169OlquOuF1XQ9k//nPf5ZLly4JZI2SZYABBhhggAEGGGCAAQYYYIABBhhggIG+MjA0NFS++OKLCYevox3Y9UA2Jx0eHq5De/9KGu1YTzMYYIABBhhggAEGGGCAAQYYYIABBhhgoNcGMuB0Mv/rSSD773//u2Ty214Xy/l8QRlggAEGGGCAAQYYYIABBhhggAEGGGBgIgYyDesnn3wymVlsbasngWzO9M0339RQNvMumFPWl2AiXwLHcMMAAwwwwAADDDDAAAMMMMAAAwww0G0DGViaKVgvX75cfv755/4NZNPz7777rl5ILuqjjz6yqAEDDDDAAAMMMMAAAwwwwAADDDDAAAMMTBkDCWEzoDTZZf7Vfzf+69kI2db5n376qXz//fd1xGxGzVrUgAEGGGCAAQYYYIABBhhggAEGGGCAAQamgoFvv/22/PDDD+XXX39tceakv/Y8kJ30K9CgCqiACqiACqiACqiACqiACqiACqiACqiACqiACvRJBQSyfXKjdFMFVEAFVEAFVEAFVEAFVEAFVEAFVEAFVEAFVKD/KyCQ7f976ApUQAVUQAVUQAVUQAVUQAVUQAVUQAVUQAVUQAX6pAIC2T65UbqpAiqgAiqgAiqgAiqgAiqgAiqgAiqgAiqgAirQ/xUQyPb/PXQFKqACKqACKqACKqACKqACKqACKqACKqACKqACfVIBgWzktC8fAAAgAElEQVSf3CjdVAEVUAEVUAEVUAEVUAEVUAEVUAEVUAEVUAEV6P8KCGT7/x66AhVQARVQARVQARVQARVQARVQARVQARVQARVQgT6pgEC2T26UbqqACqiACqiACqiACqiACqiACqiACqiACqiACvR/BQSy/X8PXYEKqIAKqIAKqIAKqIAKqIAKqIAKqIAKqIAKqECfVEAg2yc3SjdVQAVUQAVUQAVUQAVUQAVUQAVUQAVUQAVUQAX6vwIC2f6/h65ABVRABVRABVRABVRABVRABVRABVRABVRABVSgTyogkO2TG6WbKqACKqACKqACKqACKqACKqACKqACKqACKqAC/V8BgWz/30NXoAIqoAIqoAIqoAIqoAIqoAIqoAIqoAIqoAIq0CcVEMj2yY3STRVQARVQARVQARVQARVQARVQARVQARVQARVQgf6vQM8D2V9++aX88MMP5euvvy6ff/55+eKLLyxqwAADDDDAAAMMMMAAAwwwwAADDDDAAAM33MB3331Xfvrpp66mvj0NZP/xj3+UoaGhcunSpXL+/PkyPDxsUQMGGGCAAQYYYIABBhhggAEGGGCAAQYYuOEGLl++XDPLvH766aflt99+60ow27NA9vvvvy8XLlyoS8LYDz/80KIGDDDAAAMMMMAAAwwwwAADDDDAAAMMMDBlDCS3bNllBpX+61//mvRQtieB7K+//jpyIYJYQTQDDDDAAAMMMMAAAwwwwAADDDDAAAMM9IOBTz75pD8D2QzxzVQF/VBkffTHgAEGGGCAAQYYYIABBhhggAEGGGCAAQaagZ9//nlSQ9muj5BNhzNXbLsArzAzwAADDDDAAAMMMMAAAwwwwAADDDDAQD8YSK755Zdf9lcg+7//+7+mKzAPiECeAQYYYIABBhhggAEGGGCAAQYYYICBvjNw8eLF8tFHH/VXIPv111/3XaH7IZ3XR0+RGGCAAQYYYIABBhhggAEGGGCAAQYY6K6B/MDXhQsX+iuQ/fzzzwWynn4wwAADDDDAAAMMMMAAAwwwwAADDDDAQN8amMxEtutzyH722Wd9W2hPGLr7hEF91ZcBBhhggAEGGGCAAQYYYIABBhhgoB8MCGQ9TRByM8AAAwwwwAADDDDAAAMMMMAAAwwwwECPDAhke1Tofkjn9dFTJAYYYIABBhhggAEGGGCAAQYYYIABBrprQCArkPX0gwEGGGCAAQYYYIABBhhggAEGGGCAAQZ6ZEAg26NCe7LQ3ScL6qu+DDDAAAMMMMAAAwwwwAADDDDAAAP9YEAgK5D19IMBBhhggAEGGGCAAQYYYIABBhhggAEGemRAINujQvdDOq+PniIxwAADDDDAAAMMMMAAAwwwwAADDDDQXQMCWYGspx8MMMAAAwwwwAADDDDAAAMMMMAAAwww0CMDAtkeFdqThe4+WVBf9WWAAQYYYIABBhhggAEGGGCAAQYY6AcDAlmBrKcfDDDAAAMMMMAAAwwwwAADDDDAAAMMMNAjAwLZHhW6H9J5ffQUiQEGGGCAAQYYYIABBhhggAEGGGCAge4aEMgKZD39YIABBhhggAEGGGCAAQYYYIABBhhggIEeGRDI9qjQnix098mC+qovAwwwwAADDDDAAAMMMMAAAwwwwEA/GBDICmQ9/WCAAQYYYIABBhhggAEGGGCAAQYYYICBHhkQyPao0P2Qzuujp0gMMMAAAwwwwAADDDDAAAMMMMAAAwx014BAViDr6QcDDDDAAAMMMMAAAwwwwAADDDDAAAMM9MiAQLZHhfZkobtPFtRXfRlggAEGGGCAAQYYYIABBhhggAEG+sGAQFYg6+kHAwwwwAADDDDAAAMMMMAAAwwwwAADDPTIgEC2R4Xuh3ReHz1FYoABBhhggAEGGGCAAQYYYIABBhhgoLsGBLICWU8/GGCAAQYYYIABBhhggAEGGGCAAQYYYKBHBgSyPSq0JwvdfbKgvurLAAMMMMAAAwwwwAADDDDAAAMMMNAPBgSyAllPPxhggAEGGGCAAQYYYIABBhhggAEGGGCgRwamTSB7+fLlMjQ0NLJcuHBhYJCdP3++XleusR+eAuijp1UMMMAAAwwwwAADDDDAAAMMMMAAA9PVwLQIZBNYrlq1qsyfP78u8+bNK3v27ClZ3883vvX/0KFD9bqWLFnS99fUz/dD3/2PhAEGGGCAAQYYYIABBhhggAEGGGDgegYGPpBNaPnggw+WO+64o8ydO3dkuf322/s6lD116lR5/fXXawArkPVFv94X3XZGGGCAAQYYYIABBhhggAEGGGCAgalhYKAD2UxL8Pbbb5dZs2aVu+++uyxfvrzcd999ZenSpTWgXbBgQfnggw/qKNkEt9m/jToN0NHWtX3atva5E3S2tXbafu1z537XnuPafTqPzfu27N69u8yePbu88cYbI30eHh4uWVr7nf1q769t/9rzt8+j7dfa9To1vrjug/vAAAMMMMAAAwwwwAADDDDAAAMM9KeBgQ5kL168WJ5//vmS0bCPP/54+fjjj8uVK1fKyZMn60jZW2+9tRw8eLCGmidOnChvvfVWOX78+Ejwmfc7duwohw8frutOnz5ddu7cWY/JCNVsy/Luu+/WNvIleP/992sInCD4vffeq/vnmCNHjpT0p/OLcunSpbJv377f7ZPwNPskFM3I17Sf/iaETTtp99577639f/rpp8vevXvLmTNnyq5du+o+OS7757gcn8A5x2X7gQMHarutD+lPrq21m75nv7TZguq2r9f+/IK7b+4bAwwwwAADDDDAAAMMMMAAAwwwMLUMDHwg++qrr5bbbrutPPzwwyWBan7YKyNJt27dWp577rly7NixkmB08+bN5aabbiobN26s4WrCyk2bNpWbb765PPXUUyU/mJWg8pZbbikrV64sjzzySPnb3/5WP69evbokoA3uhLOZo/auu+4q69atKzNmzKhLRuYmEG2Ba/Z97bXX6r45R/bLPgmF058sa9asKTNnzixpP+dNsJxRvrmeTL+QQDkjfxOqtnXp95tvvlnbu+eee2rfc10ZJbx48eKS4DnnTj8Svibczbmz/YUXXqgjbzOCOGGyL+vU+rK6H+4HAwwwwAADDDDAAAMMMMAAAwww0P8GBjqQzWjRjHJNWJkw86GHHipr166tQelHH31UR8tmn4STmY81oWQC3HxOsJmQNlMDPPPMMzUgzWjWNhdtwtKEpwlRs+7FF18cCWTz41oJTB944IGyffv2er45c+bUzxmFmi9Ojs1xixYtqlMP5PwJcfPDYwl3E8imr9kn/d+2bVsNUPfv319D2bSfwDejWzMSNp8zBUP6ndGxud70Pfvkc86TdQmZc80ZAZt+pu0EsQmo77///tpOQl+BbP9/uf2Bdg8ZYIABBhhggAEGGGCAAQYYYICBqWdgoAPZgEv4mJA14WQCyQScWRI+ZiRpAsw/G8guXLiwTguQ0DSjZtNuQsxz587VEbIJOjNyNUFo2s6o2RyTwDSjWbNfRuwmpE1gm33S1xbAZpRuRuTmcwLTvOZz9suxGZ2bADYhavqfaReuDWRz3LJly2rwmmMzGre1lWMS7CYAzgjZjBxuNUg7Atmp90X1x9M9YYABBhhggAEGGGCAAQYYYIABBgbDwMAHsoGa0aAZmfrYY4+NBLN33nlnDTHfeeedOhp1vCNkE6I++uijNRhN2wl8E7QmcM2o0szfmkA20wMkiM0+CTszWjYBaOaATV8SlqYPnXO1ZhRs9slI3rSbILbzx7vatbRANn3Ofn8UyOZ6c+4sCZ/T1hNPPFFD3Hau7JN2s6S/AtnB+GK3e+rV/WSAAQYYYIABBhhggAEGGGCAAQamloGBD2QzojRL4CW8zJL3baqBBJIZ6fpnAtkc09pM2JkwNqNkE2h2BrJ5n3NlnwcffLCOzM2o1gS3CV4TyHZ+ITLaNiNrs29nIJtj0kb2TYA7GYHshg0baviaHztrfUh/BbJT6wva7o1X94UBBhhggAEGGGCAAQYYYIABBhgYDAMDHcgmNM2crBnVmh+waoFsXjNVQAsf80/4E8hmBOn69evrCNKsyz/zz7rOOWTTVn7Uq41sTVujjZBt0xPki5IwNSNkE7a2EbL5wa1MndDayX4JXkcbIXttIJsf+Urf/8oI2Zdffrm2YYTsYHyR/UF2HxlggAEGGGCAAQYYYIABBhhggIH+MDDQgWxC1YwmTYg6b968Ot9rRqHmx7kyQjbrn3rqqTpCNv+EP+Frws7MuZpj8z4jXzsD2YSoGRF79OjRul8C1uyTOWkTAGeUbJtDNm2mnRMnTtTQtoW02a/1K2Fr9kmw++STT9aQNmFpm0M2feoMZHNspjJIILtly5Z67ESmLMhUDWkjwXDmkE0f8iNmLaT2o1798QX2h9Z9YoABBhhggAEGGGCAAQYYYIABBvrLwEAHsgk5jxw5UkfJJkhNuNmWhLGZMiDBZEawZr/86FXC1QSTL774Yg1xs9+1gWxGsa5YsaIGpflRrLSdKQCCvwWyCTYzT2xC08zbmnYyFUHmj81+mdM16xLuZiRufngsx7Qf2co0Cm0O2c5ANse2QDahbkb6Hjp0qB6bwDfBan5MLNeS0a+5tiydc8jmc0bmLl26tO6X60sf8mNeAtn++gL7g+t+McAAAwwwwAADDDDAAAMMMMAAA/1lYKAD2WBM+Lh79+4afLYwNq8JIzuDzow8TXCabTfffHMNTxNU5n1G0WbEakbWJkR9+OGHa0j73//932XmzJk1+Mwo05yvBbIJWl966aUyY8aMumQE7eHDh2t/sl+C2TfeeKOGvm2fTGtw4MCBGqomkM38rjfddFOdmiBBa/tytX7ccsstZdasWfWY9DsBc/ZL+Jp+r1q1aiSQzWjdrMsPkrWQNqOF8+NjuYYE0Zs2bRLI/v8fOGu19tpff9DcL/eLAQYYYIABBhhggAEGGGCAAQamuoGBD2RzAxJAZhRpAsi2dIaj7SYlVG3b8wNXp06dqnO+Hjt2rLbRgtAEpWfPni179uypS/bLaNy00wLZBJ1539prbbRz5TXhaaYbaPtkaoPWTl4zLULOkb609Tku7/fv31+Py/YzZ87U9+lftuU6sj7X2PZPH7MuI4GzT5arV6/WPua4BMGZpiAjZDOdgykL/PGKHYsaMMAAAwwwwAADDDDAAAMMMMAAA5NrYFoEskHTQsjO19Ewte1tW/uc1xbIZiqAjKht29q+ee0MZFuQOtp+7Zi2La9tXXtt29rnzte2rR3XPrd9rv2c9Z3rEsxmSoWEr+nz8PBwHVmbQDYjazt/bKy16XVyv3zqqZ4MMMAAAwwwwAADDDDAAAMMMMDA9DMwbQLZv4o7Yea1gexobV4byI62z1RYl8A10yokgM2cuG3JtAeZ9zbXOxX6qQ/T74+Se+6eM8AAAwwwwAADDDDAAAMMMMDAIBsQyI7zn2UnoMwPgM2fP7/+qFZGyI4GI6Ni8+NYGXma96PtM1XW5ZqWLFlSFi1aVJd58+aVXbt2lcxfO1X6qB/+ADPAAAMMMMAAAwwwwAADDDDAAAMMDJIBgew4A9nc9MxFm3/aP1ZgmZBzaGioLv0wyrT1Na+5tlzjIAF3Lf5gM8AAAwwwwAADDDDAAAMMMMAAAwxMJQMC2T8RyE6lG6cv/pAwwAADDDDAAAMMMMAAAwwwwAADDDDQfwYEsgJZI2IZYIABBhhggAEGGGCAAQYYYIABBhhgoEcGBLI9KrSnFf33tMI9c88YYIABBhhggAEGGGCAAQYYYIABBibbwMAHspkTtXOe1M73Fy9enPTkv53v8uXLk972ZN987fmDwgADDDDAAAMMMMAAAwwwwAADDDDAQG8NDHQgm3D0rbfeKnPnzi3z58//3XLXXXeVTZs2jfkDXRPBuHPnznqelStXln74Ua+JXKNjevslVW/1ZoABBhhggAEGGGCAAQYYYIABBgbHwMAHstu3by+33357DWUTzHYuc+bMKevXry8JbicLtUB2cL4ck2VCO0wwwAADDDDAAAMMMMAAAwwwwAADDDQD0yaQXbBgQbnvvvtGlqVLl5aMkl24cGE5ceJEDWQzovXacLat6xztmvdtyf6d2/J5eHi4TpOQImdb5z7tfecx7Wb8UZvXbm/7jdZGa7+9tmO9+tIzwAADDDDAAAMMMMAAAwwwwAADDDBw4w1Mi0B29uzZZd26deXq1as1LE1gmhA2YWyC2sOHD9dA9uDBg2XHjh3l9OnTIyNmDxw4UDLq9d133x0JbY8ePVp27dpVl2w7cuTISJB78uTJun7v3r01jM150mb2OXPmTG0rx6aNzkA1AWo7V9o8duxY6ZzjNtv3798/cnzayLlaG3k9d+7cyPa0sW/fvt+14Qt3479w7oF7wAADDDDAAAMMMMAAAwwwwAADDExvA9MqkL1y5UrJj21lOXXqVFm8eHENZVvYunr16jJz5szSwtQEnA8//HC59dZby9atW2u4eejQoXL//ffX/WbMmFFf8/n48eM1sM0UCQmAMwI3germzZtL9ss+a9asKTfffHPdvvz/tXdvrVFkCxSAz19WNAZBRR9GER1RFEVF4128KxpExBt4R0RE5agxEqMIIvElD4Jah7Vhhx7JoWcGraS6v4GmTXd1ddXaX52HVfvs/vPP5unTp+Uz2e7KlSvlWLJttskatDmOFLG5SG/cuFHWps37eYyOjjZ79+5tnj17Vt5PiXzkyJFmZGSkvJ9t1q5dW8rgug8X+3Bf7Mbf+DPAAAMMMMAAAwwwwAADDDDAAAMLb2AoCtmVK1c2GzdubMbGxpr9+/eXx86dO5vVq1eXNWQrxBSmWW82M0vrjNPdu3c3q1atalK0TkxMNNu3by+F6oULF0qJmsI2JeiePXvKDNX6I2IpXFO0jo+Pl32mpD169Gj5kbEUpfk726YsTSGcHx3Lkgopfs+ePVuWU8jfKVxTDOf4s+ZtjiOf27RpUymDT58+Xb4nn8mxp1TONmfOnJlbOzezces5el74i84YGAMGGGCAAQYYYIABBhhggAEGGGBgeA0MRSGbojLla4rV3kcKzhcvXszNQv07hWyWOEjBe/369WZ6erp8PksdZEmCXEjzFbLZPgVtSt7Mzj158mQpZI8dO1ZK3hS1Ob7Mps0s3iypkGI1xW3K4efPn5cfI8t5ZCmDfG9m12aJg8zMzX4PHjxYtsk5TE5Olu9JEZtjy1IJLvLhvciNvbFngAEGGGCAAQYYYIABBhhggAEGFo+BoSpkU2j2PlKCpiita8b2K2RTpm7btq2UupnR+scff5SZrVnLNbNnA3u+QjazYVOYZsZsHhcvXiyFbJYYyN+7du0qZWrdZ/abMjY/OpbZrpkhmyUQcrwphPP+hg0b5srkFLKZKZuyOZ/L+1kfN7Ntc8wuuMVzwRkLY8EAAwwwwAADDDDAAAMMMMAAAwwMt4GhKGRTiGapgpSmKS/zyFIAWQYgpWdK1FwI/QrZLC+Q2aYpR/O5NWvWlEeK0sxyzT7+XyF76NChuUI2M2FzTD8Xstnnz48sRZD95ge9Usb2fm/K5aw9m/PJuWVWbY6l97jymbpWrYt9uC9242/8GWCAAQYYYIABBhhggAEGGGCAgYU3MLSFbGamHj58uKzLeuLEiblCNssYZGZpytfMTO1dQzavpfwM3CwjkFmqtdRdt25dmWl79erVUoj2riGb8rVfIZui9dq1a2VGa2a1Zv8pf3MMvRfK/fv3y/emFE7xmtmweT/HleUX8px1bvN+Ztxmm3Pnzv1lH7378++FvwiNgTFggAEGGGCAAQYYYIABBhhggAEGhsfAUBSyWcM1P+KVWaa3bt0qj5Sf+b/1p7C8fPlyKSwzizaFbH4QK6VoZpamcK0/6pULI5/bsWNHKUvfvXtX1nxN8ZnZqlm64J8WsvmezJTNzNYDBw6UIjjfm6I1+6xryGZWbZY2SJGc782x5DN5pLTN2rJ5P2Vy1qGdmpoqs4JzfrVwdmEPz4VtrI01AwwwwAADDDDAAAMMMMAAAwwwsDgNDEUhm2IzpWpmqvY+UmZmZmvKzAA9depUKTjXr1/fXLp0qRkbGyuFbT6bpQGyzebNm5uRkZEyuzbb5Ae6sv+tW7eWZRD+aSGbpQbu3bs3t/7r+fPnm+PHj5diOAVrvjMFbZYeGB0dLd+X702Jm7/37dtXZsXmMytWrGi2bNlSfhws+8kM3pzjzZs3y35chIvzIjQuxoUBBhhggAEGGGCAAQYYYIABBhgYHgMDX8hmxuiyZcv+UsSmlE2ZmWUC6o9mBf2jR4+alLEpNpcsWVJK1xStKWCzn8xOffjwYZltu3z58rLf7DuzaO/evVtKz+wv+08ZmrI1M1uXLl1aZqvm83mkLM1rmRGbbfLa+Ph4+Uz2l0eWSkhRnCUI8rh9+3ZZhqC+n+/PTN3Hjx+X91PaZr3ZnFfdJkVyytuflz1wgQ/PBW6sjTUDDDDAAAMMMMAAAwwwwAADDDCwuAwMdCGbIvPJkydlhmhdqqD3OSVn1oWtKPPvzFbNNplVmnVcHzx4UP7OfrJd9pmlCXr3k23qfrJd3rtz587cttlXitxarqZEzWu1cM1+8/msD1v3m/1k+95j630/29Uyth5Xtq+fz3OWaKjHVffjeXFdgMbDeDDAAAMMMMAAAwwwwAADDDDAAAPDZWCgC9mKuRah8z3Xbepz7zZ5rf5d36/P9fX6XF+f7zN/Z5vez2X73v3Vf9f91Of6eu9zfa8+977n38N1cRtv480AAwwwwAADDDDAAAMMMMAAAwwsPgNDUciCt/jgGRNjwgADDDDAAAMMMMAAAwwwwAADDDAwjAYUsv8FfxjhO2fuGWCAAQYYYIABBhhggAEGGGCAAQYWwoBCViE77/IIC4HRd/ofQQYYYIABBhhggAEGGGCAAQYYYICBQTegkFXIKmQZYIABBhhggAEGGGCAAQYYYIABBhhgoCUDCtmWgh70Zt/5uXvFAAMMMMAAAwwwwAADDDDAAAMMMMBAfwMKWYWsux8MMMAAAwwwwAADDDDAAAMMMMAAAwww0JIBhWxLQbs70P/ugIxkxAADDDDAAAMMMMAAAwwwwAADDDAw6AYUsgpZdz8YYIABBhhggAEGGGCAAQYYYIABBhhgoCUDCtmWgh70Zt/5uXvFAAMMMMAAAwwwwAADDDDAAAMMMMBAfwMKWYWsux8MMMAAAwwwwAADDDDAAAMMMMAAAwww0JIBhWxLQbs70P/ugIxkxAADDDDAAAMMMMAAAwwwwAADDDAw6AYUsgpZdz8YYIABBhhggAEGGGCAAQYYYIABBhhgoCUDCtmWgh70Zt/5uXvFAAMMMMAAAwwwwAADDDDAAAMMMMBAfwMKWYWsux8MMMAAAwwwwAADDDDAAAMMMMAAAwww0JIBhWxLQbs70P/ugIxkxAADDDDAAAMMMMAAAwwwwAADDDAw6AYUsgpZdz8YYIABBhhggAEGGGCAAQYYYIABBhhgoCUDCtmWgh70Zt/5uXvFAAMMMMAAAwwwwAADDDDAAAMMMMBAfwMKWYWsux8MMMAAAwwwwAADDDDAAAMMMMAAAwww0JIBhWxLQbs70P/ugIxkxAADDDDAAAMMMMAAAwwwwAADDDAw6AYUsgpZdz8YYIABBhhggAEGGGCAAQYYYIABBhhgoCUDCtmWgh70Zt/5uXvFAAMMMMAAAwwwwAADDDDAAAMMMMBAfwOdKmQ/fPigqVcgM8AAAwwwwAADDDDAAAMMMMAAAwwwwEBnDXSqkP348WNng3Z3oP/dARnJiAEGGGCAAQYYYIABBhhggAEGGGBg0A10qpCdmZlpXr58qZR1B4QBBhhggAEGGGCAAQYYYIABBhhggAEGOmUgveabN29+ZR/b/OeX7m2enc3OzjavXr3qVNCD3ug7P3etGGCAAQYYYIABBhhggAEGGGCAAQYY6G9gYmKief/+/Tyt579/6bcXst++fStlrFmy/QfYRSAjBhhggAEGGGCAAQYYYIABBhhggAEGFo+Bt2/fNl++fPn37es8n/zthWy+8/Pnz8309LRZsqakM8AAAwwwwAADDDDAAAMMMMAAAwwwwEBnDGSGbCac/sr/Wilkv3//3kxOTpb1FjT8i6fhNxbGggEGGGCAAQYYYIABBhhggAEGGGCAgfkNZKmCTDT91f+1UsjmoL9+/VpK2ampqeb169edacGBnB+kXOTCAAMMMMAAAwwwwAADDDDAAAMMMDBoBuqPeKXDnJmZ+dVdbNlfa4Vsvu3Hjx/Np0+fmqy9YE1ZF+ygXbDOh2kGGGCAAQYYYIABBhhggAEGGGCguwZqX5mZsbOzs6XL/B2NbKuF7O84AfuUgAQkIAEJSEACEpCABCQgAQlIQAISkIAEJNCVBBSyXRkpxykBCUhAAhKQgAQkIAEJSEACEpCABCQgAQl0PgGFbOeH0AlIQAISkIAEJCABCUhAAhKQgAQkIAEJSEACXUlAIduVkXKcEpCABCQgAQlIQAISkIAEJCABCUhAAhKQQOcTUMh2fgidgAQkIAEJSEACEpCABCQgAQlIQAISkIAEJNCVBBSyXRkpxykBCUhAAhKQgAQkIAEJSEACEpCABCQgAQl0PgGFbOeH0AlIQAISkIAEJCABCUhAAhKQgAQkIAEJSEACXUlAIduVkXKcEpCABCQgAQlIQAISkIAEJCABCUhAAhKQQOcTUMh2fgidgAQkIAEJSEACEpCABCQgAQlIQAISkIAEJNCVBBSyXRkpxykBCUhAAhKQgAQkIAEJSEACEpCABCQgAQl0PgGFbOeH0AlIQAISkIAEJCABCUhAAhKQgAQkIAEJSEACXUlAIduVkXKcEpCABCQgAQlIQAISkIAEJCABCUhAAhKQQOcTUMh2fgidgAQkIAEJSEACEpCABCQgAQlIQAISkIAEJNCVBBSyXRkpxykBCTLYZqYAAABiSURBVEhAAhKQgAQkIAEJSEACEpCABCQgAQl0PgGFbOeH0AlIQAISkIAEJCABCUhAAhKQgAQkIAEJSEACXUlAIduVkXKcEpCABCQgAQlIQAISkIAEJCABCUhAAhKQQOcT+B+58WOcVH120wAAAABJRU5ErkJggg==;" vertex="1" parent="ilPdNpB5mTHZ3iF2T62z-1">
          <mxGeometry x="10" y="172" width="1012.58" height="632" as="geometry" />
        </mxCell>
      </root>
    </mxGraphModel>
  </diagram>
  <diagram id="c8ISPShpCCamQPtwjO-_" name="EIAM: Capabilities">
    <mxGraphModel dx="2066" dy="794" grid="1" gridSize="10" guides="1" tooltips="1" connect="1" arrows="1" fold="1" page="1" pageScale="1" pageWidth="1169" pageHeight="827" math="0" shadow="0">
      <root>
        <mxCell id="ufdZF3ynBN-NUol6dKND-0" />
        <mxCell id="ufdZF3ynBN-NUol6dKND-1" parent="ufdZF3ynBN-NUol6dKND-0" />
        <mxCell id="rkgKwRC5I5Fk2GDeBsU8-0" value="&lt;h1 style=&quot;white-space: nowrap&quot;&gt;&lt;font color=&quot;#0077c8&quot; style=&quot;font-weight: normal ; font-size: 48px&quot;&gt;Enterprise IA Model: Target&lt;/font&gt;&lt;/h1&gt;&lt;h1&gt;Identification of capacbilities in scope for &amp;lt;subprocess&amp;gt;&lt;/h1&gt;&lt;p&gt;Lorem ipsum dolor sit amet, consectetur adipisicing elit, sed do eiusmod tempor incididunt ut labore et dolore magna aliqua.&lt;/p&gt;" style="text;html=1;strokeColor=none;fillColor=none;spacing=5;spacingTop=-20;whiteSpace=wrap;overflow=hidden;rounded=0;" parent="ufdZF3ynBN-NUol6dKND-1" vertex="1">
          <mxGeometry x="40" y="50" width="790" height="160" as="geometry" />
        </mxCell>
      </root>
    </mxGraphModel>
  </diagram>
  <diagram id="Y9cOvqj_NRgNA3cC-ght" name="EIAM: Flow">
    <mxGraphModel dx="3443" dy="1323" grid="1" gridSize="5" guides="1" tooltips="1" connect="1" arrows="1" fold="1" page="1" pageScale="1" pageWidth="1169" pageHeight="827" math="0" shadow="0">
      <root>
        <mxCell id="560NTrD_in3vfmv8XTu--0" />
        <mxCell id="560NTrD_in3vfmv8XTu--1" parent="560NTrD_in3vfmv8XTu--0" />
        <mxCell id="65DxNwR92WsACYpHL7NR-0" value="&lt;h1 style=&quot;white-space: nowrap&quot;&gt;&lt;font color=&quot;#0077c8&quot; style=&quot;font-weight: normal ; font-size: 48px&quot;&gt;Enterprise IA Model: Target&lt;/font&gt;&lt;/h1&gt;&lt;h1&gt;Information flows for &amp;lt;subprocess&amp;gt;&lt;/h1&gt;&lt;div&gt;Lorem ipsum dolor sit amet, consectetur adipisicing elit, sed do eiusmod tempor incididunt ut labore et dolore magna aliqua.&lt;br&gt;&lt;/div&gt;" style="text;html=1;strokeColor=none;fillColor=none;spacing=5;spacingTop=-20;whiteSpace=wrap;overflow=hidden;rounded=0;" parent="560NTrD_in3vfmv8XTu--1" vertex="1">
          <mxGeometry x="30" y="20" width="790" height="150" as="geometry" />
        </mxCell>
        <mxCell id="65DxNwR92WsACYpHL7NR-12" value="Use as-is" style="rounded=0;whiteSpace=wrap;html=1;strokeColor=#0070C0;fillColor=#0070C0;fontSize=11;" parent="560NTrD_in3vfmv8XTu--1" vertex="1">
          <mxGeometry x="1045" y="185" width="100" height="17" as="geometry" />
        </mxCell>
        <mxCell id="65DxNwR92WsACYpHL7NR-13" value="Change" style="rounded=0;whiteSpace=wrap;html=1;strokeColor=#F27D00;fillColor=#F27D00;fontSize=11;" parent="560NTrD_in3vfmv8XTu--1" vertex="1">
          <mxGeometry x="1045" y="206" width="100" height="17" as="geometry" />
        </mxCell>
        <mxCell id="65DxNwR92WsACYpHL7NR-14" value="New for Epic" style="rounded=0;whiteSpace=wrap;html=1;strokeColor=#00B050;fillColor=#00B050;fontSize=11;" parent="560NTrD_in3vfmv8XTu--1" vertex="1">
          <mxGeometry x="1045" y="227" width="100" height="17" as="geometry" />
        </mxCell>
        <mxCell id="65DxNwR92WsACYpHL7NR-15" value="Not available (yet)" style="rounded=0;whiteSpace=wrap;html=1;strokeColor=#FFFF00;fillColor=#FFFF00;fontSize=11;" parent="560NTrD_in3vfmv8XTu--1" vertex="1">
          <mxGeometry x="1045" y="248" width="100" height="17" as="geometry" />
        </mxCell>
        <mxCell id="65DxNwR92WsACYpHL7NR-5" value="&lt;font color=&quot;#ffffff&quot; style=&quot;font-size: 11px&quot;&gt;1&lt;br style=&quot;font-size: 11px&quot;&gt;&lt;/font&gt;" style="ellipse;whiteSpace=wrap;html=1;aspect=fixed;fillColor=#000000;verticalAlign=bottom;textDirection=ltr;fontSize=11;fontStyle=1" parent="560NTrD_in3vfmv8XTu--1" vertex="1">
          <mxGeometry x="1045" y="280" width="16" height="16" as="geometry" />
        </mxCell>
        <mxCell id="65DxNwR92WsACYpHL7NR-1" value="&lt;p&gt;API/service:&lt;br&gt;Resource:&lt;br&gt;Method:&lt;br&gt;Pattern:&lt;br&gt;Impl. option:&lt;/p&gt;" style="text;html=1;verticalAlign=middle;" parent="560NTrD_in3vfmv8XTu--1" vertex="1">
          <mxGeometry x="1065" y="280" width="80" height="70" as="geometry" />
        </mxCell>
        <mxCell id="65DxNwR92WsACYpHL7NR-23" value="" style="group" parent="560NTrD_in3vfmv8XTu--1" vertex="1" connectable="0">
          <mxGeometry x="1045" y="358" width="100" height="20" as="geometry" />
        </mxCell>
        <mxCell id="65DxNwR92WsACYpHL7NR-16" value="" style="group" parent="65DxNwR92WsACYpHL7NR-23" vertex="1" connectable="0">
          <mxGeometry width="100" height="20" as="geometry" />
        </mxCell>
        <mxCell id="65DxNwR92WsACYpHL7NR-7" value="API-Provider" style="text;html=1;fontSize=11;verticalAlign=middle;" parent="65DxNwR92WsACYpHL7NR-16" vertex="1">
          <mxGeometry x="20" width="80" height="20" as="geometry" />
        </mxCell>
        <mxCell id="65DxNwR92WsACYpHL7NR-8" value="&lt;font color=&quot;#ffffff&quot; style=&quot;font-size: 11px&quot;&gt;&lt;br style=&quot;font-size: 11px&quot;&gt;&lt;/font&gt;" style="ellipse;whiteSpace=wrap;html=1;aspect=fixed;fillColor=#000000;verticalAlign=bottom;textDirection=ltr;fontSize=11;fontStyle=1" parent="65DxNwR92WsACYpHL7NR-16" vertex="1">
          <mxGeometry y="2" width="16" height="16" as="geometry" />
        </mxCell>
        <mxCell id="65DxNwR92WsACYpHL7NR-24" value="" style="group" parent="560NTrD_in3vfmv8XTu--1" vertex="1" connectable="0">
          <mxGeometry x="1045" y="385.5" width="100" height="17" as="geometry" />
        </mxCell>
        <mxCell id="65DxNwR92WsACYpHL7NR-17" value="" style="group" parent="65DxNwR92WsACYpHL7NR-24" vertex="1" connectable="0">
          <mxGeometry width="100" height="17" as="geometry" />
        </mxCell>
        <mxCell id="65DxNwR92WsACYpHL7NR-6" value="&lt;font color=&quot;#ffffff&quot; style=&quot;font-size: 11px&quot;&gt;&lt;br style=&quot;font-size: 11px&quot;&gt;&lt;/font&gt;" style="ellipse;whiteSpace=wrap;html=1;aspect=fixed;fillColor=#7030A0;verticalAlign=bottom;textDirection=ltr;fontSize=11;fontStyle=1;strokeColor=#7030A0;" parent="65DxNwR92WsACYpHL7NR-17" vertex="1">
          <mxGeometry y="0.5" width="16" height="16" as="geometry" />
        </mxCell>
        <mxCell id="65DxNwR92WsACYpHL7NR-9" value="API-Consumer" style="text;html=1;fontSize=11;verticalAlign=middle;" parent="65DxNwR92WsACYpHL7NR-17" vertex="1">
          <mxGeometry x="20" width="80" height="17" as="geometry" />
        </mxCell>
        <mxCell id="_yGhbM18hKooRvxDjNCO-0" value="&lt;div style=&quot;font-size: 14px&quot;&gt;&lt;font style=&quot;font-size: 14px&quot; color=&quot;#ffffff&quot;&gt;&amp;nbsp; &amp;nbsp; Providers &amp;amp;&lt;/font&gt;&lt;/div&gt;&lt;span style=&quot;font-size: 14px&quot;&gt;&lt;div&gt;&lt;font style=&quot;font-size: 14px&quot; color=&quot;#ffffff&quot;&gt;&amp;nbsp; &amp;nbsp; Consumers&lt;/font&gt;&lt;/div&gt;&lt;/span&gt;" style="rounded=1;whiteSpace=wrap;html=1;strokeColor=none;fillColor=#D9D9D9;fontSize=11;verticalAlign=middle;align=left;fontColor=#333333;" parent="560NTrD_in3vfmv8XTu--1" vertex="1">
          <mxGeometry x="30" y="184" width="860" height="93" as="geometry" />
        </mxCell>
        <mxCell id="_yGhbM18hKooRvxDjNCO-1" value="&lt;font color=&quot;#ffffff&quot;&gt;&lt;span style=&quot;font-size: 14px&quot;&gt;&amp;nbsp; &amp;nbsp;&lt;/span&gt;&lt;span style=&quot;font-size: 14px&quot;&gt;Digital&lt;/span&gt;&lt;span style=&quot;font-size: 14px&quot;&gt;&lt;br&gt;&lt;/span&gt;&lt;/font&gt;&lt;div style=&quot;white-space: normal ; font-size: 14px&quot;&gt;&lt;font color=&quot;#ffffff&quot;&gt;&amp;nbsp; &amp;nbsp;Aegon&lt;/font&gt;&lt;/div&gt;&lt;div style=&quot;white-space: normal ; font-size: 14px&quot;&gt;&lt;font color=&quot;#ffffff&quot;&gt;&amp;nbsp; &amp;nbsp;Solution&lt;/font&gt;&lt;/div&gt;&lt;div style=&quot;white-space: normal ; font-size: 14px&quot;&gt;&lt;font color=&quot;#ffffff&quot;&gt;&amp;nbsp; &amp;nbsp;Platform&lt;/font&gt;&lt;/div&gt;" style="rounded=0;whiteSpace=wrap;html=1;strokeColor=none;fillColor=#D9D9D9;fontSize=11;fontColor=#333333;align=left;" parent="560NTrD_in3vfmv8XTu--1" vertex="1">
          <mxGeometry x="30" y="297" width="860" height="380" as="geometry" />
        </mxCell>
        <mxCell id="_yGhbM18hKooRvxDjNCO-3" value="&lt;div&gt;&lt;span style=&quot;font-size: 14px ; color: rgb(255 , 255 , 255)&quot;&gt;&amp;nbsp; &amp;nbsp;Enterprise&amp;nbsp;&lt;/span&gt;&lt;/div&gt;&lt;font color=&quot;#ffffff&quot; style=&quot;font-size: 14px&quot;&gt;&lt;div&gt;&lt;span&gt;&amp;nbsp; &amp;nbsp;Applications&lt;/span&gt;&lt;/div&gt;&lt;/font&gt;" style="rounded=1;whiteSpace=wrap;html=1;strokeColor=none;fillColor=#D9D9D9;fontSize=11;fontColor=#333333;align=left;" parent="560NTrD_in3vfmv8XTu--1" vertex="1">
          <mxGeometry x="30" y="700" width="860" height="93" as="geometry" />
        </mxCell>
        <mxCell id="_yGhbM18hKooRvxDjNCO-4" value="&lt;font style=&quot;font-size: 14px&quot; color=&quot;#ffffff&quot;&gt;Control&lt;br&gt;Environment&lt;/font&gt;" style="rounded=1;whiteSpace=wrap;html=1;strokeColor=none;fillColor=#D9D9D9;fontSize=11;fontColor=#333333;verticalAlign=top;" parent="560NTrD_in3vfmv8XTu--1" vertex="1">
          <mxGeometry x="905" y="184" width="105" height="609" as="geometry" />
        </mxCell>
      </root>
    </mxGraphModel>
  </diagram>
</mxfile>
